<mxfile modified="2020-11-28T01:26:34.935Z" host="app.diagrams.net" agent="5.0 (Windows NT 10.0; Win64; x64) AppleWebKit/537.36 (KHTML, like Gecko) Chrome/86.0.4240.198 Safari/537.36" etag="yUDexeyPXcFORsAYV0jE" version="13.10.4" type="github">
  <diagram id="Ht1M8jgEwFfnCIfOTk4-" name="Page-1">
    <mxGraphModel dx="1483" dy="829" grid="1" gridSize="10" guides="1" tooltips="1" connect="1" arrows="1" fold="1" page="1" pageScale="1" pageWidth="1169" pageHeight="827" math="0" shadow="0">
      <root>
        <mxCell id="0" />
        <mxCell id="1" parent="0" />
        <mxCell id="UEzPUAAOIrF-is8g5C7q-125" style="edgeStyle=orthogonalEdgeStyle;rounded=0;orthogonalLoop=1;jettySize=auto;html=1;startArrow=open;startFill=0;endArrow=open;endFill=0;strokeWidth=2;strokeColor=#808080;" parent="1" source="UEzPUAAOIrF-is8g5C7q-111" edge="1">
          <mxGeometry relative="1" as="geometry">
            <Array as="points">
              <mxPoint x="530.5" y="101.5" />
              <mxPoint x="530.5" y="101.5" />
            </Array>
            <mxPoint x="568.5" y="101.42857142857144" as="targetPoint" />
          </mxGeometry>
        </mxCell>
        <mxCell id="UEzPUAAOIrF-is8g5C7q-137" value="" style="edgeStyle=orthogonalEdgeStyle;rounded=0;orthogonalLoop=1;jettySize=auto;html=1;startArrow=none;startFill=0;endArrow=open;endFill=0;strokeWidth=2;strokeColor=#808080;" parent="1" source="UEzPUAAOIrF-is8g5C7q-117" edge="1">
          <mxGeometry relative="1" as="geometry">
            <mxPoint x="930.5" y="162.5" as="targetPoint" />
          </mxGeometry>
        </mxCell>
        <mxCell id="UEzPUAAOIrF-is8g5C7q-143" style="edgeStyle=orthogonalEdgeStyle;rounded=0;orthogonalLoop=1;jettySize=auto;html=1;startArrow=open;startFill=0;endArrow=open;endFill=0;strokeWidth=2;strokeColor=#808080;" parent="1" source="UEzPUAAOIrF-is8g5C7q-111" edge="1">
          <mxGeometry relative="1" as="geometry">
            <mxPoint x="500.5" y="111.5" as="sourcePoint" />
            <mxPoint x="568.5" y="121.42857142857144" as="targetPoint" />
            <Array as="points">
              <mxPoint x="530.5" y="121.5" />
              <mxPoint x="530.5" y="121.5" />
            </Array>
          </mxGeometry>
        </mxCell>
        <mxCell id="fzYEetxtUc2qvv0lDvPF-2" value="User" style="shape=image;verticalLabelPosition=bottom;labelBackgroundColor=#ffffff;verticalAlign=top;aspect=fixed;imageAspect=0;image=data:image/png,iVBORw0KGgoAAAANSUhEUgAAAFMAAABTCAYAAADjsjsAAAAUl0lEQVR4AdXdB1RUd74H8OtmX/Ylu9n3snGTbJJNTGKXqFiwPEuiHjcvPlNdd+00pQmCAlKHIqLGBioKCCOKYDeJqDQRGKrYG7EyBYYuMCBNhO87vztcM0xmhjswo8Rz7vnPTCgzH76/f7t3JgxewL/WagVqr9yH/EQW7m05gsuWW5A10w1pY2yR+ok1zqkcIlNbRL41B6uZkfBgxnQ5vPqNhf8fJmHbgLn4wdwfOdvicD8xFzUP5S/gVQHM8/qtrVV1LN4V660QTXVGxsgVyB9tjwujHZA9yhbpI1cgTQWRA9WFSbhrGVN4MmMgYMYhkDGDoN94CF6ZjPBxSyEKEuLRPdnzeonGx3wsKcO9DYeQPcMVOaPskDfaHpkjbXD+k+VdEsjhqbfdYaqnlWC9mLHwZcbBnzFD4J+n4fgCbxTn3jA6qtGS2VpTj6KQk8ia4oyC0Q4QjbTRmDx1PPX7+mKq4xKsPzMe3i+Nx/GlAjy6JzUaqlEwK89fRf6XAhaRUqgOpM/93mJyuIQawJhhw19n4VLkSaOAGhSzva0dD8N+gmiULXJH2fUKkQM3FCaH6k2o/cxwfIkvmmvrDYpqMMwn9Y24uSacHVBocOEwetsaGpNQqV8NYMYjfII56iSlBgM1CGZbQxOurdiOgtEreQ8sfJEJc+/bc7BGw9SIS1tPWxqgdgydh5oHJQYB7TVme+sTXLULZSE1TW34omn7uszRtogfOg9uzOguc8yeAqp/Hw1OO4fPh0JW3mvQXmPe9t2HAtOVPRqptQGqPp4x2gaJM63g8fux7JxSHcMQ9ymhUdNXoLWhsVegvcKUxaex88bzI/nNGVWR+NxONbFGhqkNLtu6wvs/x8GdMTVKOukPEtjPDAkOm14MZn2hFBnj7SEa1bupjy7U1OFWyJpoj6LgQAS/ORWuzCijYbKrqH7jUXjifI9Be5TMjqftuGy9BfmjHQw2amtCTRliiQuznVF3KAR7Rn6B1cwnRsOkdNKqaevAr9CieNwj0B5hlp7KVZY3zyWhJig+jyV+bI47dgK0nYvEj98sgQtjYlRMAqWJ/Tmf3c8Hs+NJG/L/GYDc0YaZlGtDTR1hBToaYsLQkrQHNwLc4fuKGdyMWOqESZP69W/MQH1Jpd6geiez7HQem0pjTINUYZMGmuPS16uBrFgoju+APHo94qbPg/NzSmdmkNDImB0duGy9lcVUfeGGvk2JTBlqiaqd24CCeNQdDUVx5DpcF7jD++XxRptzUjLp8GHGYdP7c9BS26AXqF7JbJRWIN3Mnt2LNDSg6s9L/HAZbpp7AtmxgCiWxRTv9EdFzEb88NUSNp20j8m9eGO0vv3G4W5ClvEwJfuTjT6CJw2yQPY0BzT/EAlkHwAyD7CYRTv9UBwZBGlYIHYMmm30cqeB6OzqbcbDpF1y2h1XTZEhbycPtkDaqOWo2RsK5B8Ezsd0wZTuDkRpdDAKg70Q1H8KXIw4VaJSDx0xH0+bW3mD8i7z1toGZM1yYzd5DQnI/SyCpNsV27f+AqkBk0DL923AVR83BLw+0WigNIn37jcW5dfvGx6TVjznx9ix52o4AIO0Jtag+WSGmQ2qd4cAeQeB9BhlKrVgsqAxG3AjYC02vTsdzswIg6/buRXRjbgkw2NWpl/T69wNH+jkIRZI/Eg5BWo4tOfXkDowCbRs3wY82CZAzOSvsYYZxa6QDDkw+THjIdq03/CY8hMi9oRYWi9XPTTtoZKmNGZNsYdUEIz2tH1AbuwvaSRE7lAZgAhQ/ZDvXc/2oxk2dtg2YCa770l9qSG27Gh77rTj94bHlMYoR3K+k/WU4VZIHmIJSh/h0SScAGmAKZjjDLFXEFoTopT9Y+b+X/A4RK7tBpNwZXvWsf0otWlWNuw63u+PE9mk0hKU1vS0uUyHPisowjxh7m94THHkGfaUBK/yHWyB9HE2yJ3hiPzZTrg4dzVuLPFgU6g4EIYOSiL1jaID2hH1wOTSWhyhRC2JDMLt9Z44b22Lg9PnIWzo5wgdOBtb/j4DgX+ezO4+8ekOCPPoEl9jYJ5mzzZ2h5k82BJX57vh8dE9aEuMxtOkaCAtBsiJVaaQ2gwdSeQQuZZHMjlMrqWEUvmXx2xAmXADe5seE+8IwL3NvoidNo/XaZAXipk6zAoZZrZoPh4BFMQBVL50EJ7qCM1B8Wl7gMmhcq1sTyBk4etAyaVBi2Appd2dV3qhmNRH5s12QnuyUInIB6u7rzEAJodKLUGWCoMRPf7LbueoLwbTxBrnTKxBJZ43ywlPE6P1w0zXkdxuMGW7A1G8Z92vRnlVQNXbbBcQtR57x87tXOPT9UpdLwjj1vrPD9PEGilDrZA8yBIpw6xApxiSBlogd6Yjf0wq/dw4IPugshVpmB5pwZTQ0jIiCI+EG1GxNxg1wo0sKj2uiqd+m8OMNP0/rGJM2PNKNI2ieSqdFlEdmJ4LJiGy52dm2OPqclfcdvVA4VpP3FqzFg8C/dCeIgQobbpKmCCzDuJsiD9WLF2MIBc7VCeEs7tEXb5PCyZB/hwiwKpv5mLOxMnYbLkQ8vAgXiktjghCus1yHPnfb3F87j9xbM48HJj2Jb5/dxqLyZ1rMjpmymBLiKbZsXj0Vy8RBqE4OgjFUUGQ7V2H8v0b0X6OB2ZuHM6E+OMD06l4c8QkvD50ApYuWIDGVOpvVaZMGjCprAlz/ozPwLz8BphX3gTz6pvYbLGATah6GtXvF4evw/UAF+SuXo58Nxv2uLDWFtnOy/Hjd//Gpr9NZZNqVMy84fbI+YcDxNv9WURZeNeSkuwKQGnUhu4xKbXZB9lEvmkyCcMmfIaB46ZjyITPcDt2q7LsuVRrwCyPXI9Lmzzw1nsf43f/9S5e7f8+mD++haljzSCPCEJJuO4+lDCv+K5CpoMlspysnx3Zq5Yj390WmSutEDJwBnsKwyjzzIdhCbgydRXE2/zZFKr/tem+Xpg5cQhytsPrwyawkO+M+h+MnTYb8hO72FMVz0pdAyal8k6oAMMGm7CJfPkv74F5uT8WzJqJqijl1EfT8+Me04bJweauWQGRoxW2v/0p4hd5GX7S/nB3Aoo9lInknpR6yxuTUieKZftIKm1KJEEe2ejVFZK+TgMm/d6qqGBErbTEe+8Pxitv/B1jTEwhCnJlByP156V+vztMQs13t0HSt4twZKmP4THlx5NRs2cTO/lVf3Lcfb0wO0GfpApxK3Yr5CcpkbT9pjZwacGk31m5N5gt99PejuxgROUvCeva9XDPTbXlg5m9yhqXV9sh3csIGx3VaWlQCDdDukf7k9Ubk0AzDij7yCwN0yIdyeRwCJBKm0qfe6y7lg8mpfOqmz2u7gwzfDJrctLQsH+LzifcI0wCUz9oIyRNCJyLAtKFqDu0BUXbvSDdKVAeYf46n4ehMK+5OeB2dIQxMM8bF5PwUvcCKZEsZIcoHu05x9F+MQG1KYchjg+H9MBOSGO2Q0ornlAfSEO9Id3lpzcs32Rec7PHrSgjYFadM1KZn4tWAmYcQFvBabTcvYTH5SWor6mFor4R9Y0tKK9SoEhSBrFEDkmRDJLCnyHNyYD0eAykUZsg3eED6U5f3qh8ManMr+wwQpmXHE3Go7CNkEVon8PpVeadiB2ZcWi5U4CGqkrUNbahthWobQFqm9tR1/QUiuZ2lD9qQJGsEmJ5FcTyaohLayAur4O49BEk94uUsPtDlag7ukflg0lzzssudkjz4H+ZIe+zkzQ1kq4RoES4XmsCeGGyiBHoyDqE5nuXUV9b1wnYgbqmNtQ1PulyKJraUF5djyJpOcTFFWpHJQsqrlBAIi2FJE8E6cEwSEO8IWVRAzQ+Vz6YF9xtcfarBTiyxAhTI8K8PNkJRZv92OWjpk5eJ2YnYnvWETTfufgLIiVQDVD1vm5MFVxKbUUdxLJySKgLiNutktSuqN1h5rmuQIa9Jbb2n4ZDi7wNPwCJI08jn5aTsxxQtMUPJfuCfjXn1IjZWc7tWYfZclbU1SuT2A0iB8obk0ttSRXbBUiKKyDJyYT04C5lSlWSqg2T1ua0nMyws8TWAZ/CmxmDo4uNeNqCLkDNmGSLW2s82OUjbXCwGx3R3EbHJuXanEbnlEjQqNx89yL0RewxphqqWFYGaV4WpAd2PEMlzOuBXTc68txskOVojZNfzUfQG8rzREbd6KC37dE5oGdbcJ/a4eJ8Z3Yb7rqdG9veXeuD9sQIdGQfQsvdy1BwfSLPJHKIXKt3MjlMrqWkUvlTn5qfDdnBXSgJEyBpsTmEU+YgdvpX2D9lLvaM/Ac2vjX1+W7BPTuh1rk5TFtylFY6Ej80R+5UWzTnJaO+Qb9y5vDU215jcqhsn6oAlb887RTCR3yOlcwwdkOYNoaVm8Ojn//m8DNQtbc0pwxahrwvXFFXWYO6p9A5sKijabtvMMxOVElZDUoqaxA1wwIuzFCdlyU+lzLXijlwKfK+E6C2rhGKVt2jtDY89ccNjimvRPEjBaK+dIELM7gPYw5ehqwvPFFdXgfFk46+mUx5FWQVNQifbY/VzJC+i5k6xBwZU5xR8aAc9X21zEur2bnolhF0IcLwPow53BKpJlYoybsDuhpcvWR7ct/QZS6rrEXhlTsQvDYVbt1cLPtC+0zqS5M+WIg7kWdBb0vqCZ769xgas7ShCak7DmMNM7TLyM2dK1dtXzhm8sdLkDsvEHWNrVC0PO01qCExJSWVKKmpR/TXrt0OPoT6wjFTh1vi3AgrlOQUGqTUDYlZXF3Hlrj/G591W+J9ApNKPfnDRbjkFIb69g7UNfcunYbELK1vwmHbYLgwg3QOPFypv/BksnNQelPUoKUQn8rvdd9pEExZOUrrG3El9QK8X53AK5V9JpkESpiZM1xR+bBMWe6Pu+5Tqg802u73GlNWDirvh2I5to9d2O3ckktln8Jky33AQuT9KwiPKhU97j97hSmrQHFVLTtJF37rCmee5c2B9o0yV1mzJw9YhLwF61FdUq0seQ276dpSSY/3BlNe28DuzAvnubGjt+oVbhyYrrbPYXIDUtbnHijOvMkmtL6D/xy0J5iyyhqUNbbgetY1hE5e2gmp/wem9ElMFvTjxexe6HXfGJT/XMymVNHWPao+mJKyRyzi3dtFOOkRAsHrUzvnkz1702qfxSTQ1GEW7Arp/Dg73Aw+hCqxHPXtgKIVGk+m8S1zQpQ9asDD+xKcCYrC+gGfw4UZyHvU1lbqfRqTQOlIGWKOpPcXoNDTFxV5yagpK0ddC6CgzZEWOkv59BmuxmSWVEJSWg1JpQLSSgUe3hOj8MwppK9ygjszHC7MMF7zSG2I3OO/CUy6/p2uPC5c4w7Zbh9IIzdAnhCPqpvXUFNdwy5BKa3UDVByKxqeQFKhgLS6gcWTyKtR9FCGOzl5uBodgTwvF2Q7LEHq0oXw+b3hPrLnt4Xp7qm81nOXHyQhXpCE+kAm3AL5cSFKk06iXJSCqoIsSETpuPHjj7h+OB7X9gtxMeR75AncIXKwQObyhRDZmyNn9XKcszKHz3+MN9jnH/1mMDMGLcNdSmaUytVrYQGQ7vRjUSUh3iywbKcvrvs64vzyhchcsUh52CyGyH4Zshytnl31S5hpFkvhz4yEu4E+6qzPY2YMM8eFDxbgxIRVyF0fDHmk9ksU6UIHupj/RsBqZNibP4PjrvBVbXOdrXF2pQOc3p0LX2YQfLrZ+OX6RV2t0TCLwhN4vd2PG2TUWxZxwAKcGWuHNW4xeO9yGSJ/OoYaupJNx9tNWMzANchwsNCJWeCwFEe9/fDfUVWYtHAvHP86G/4s6ogeD0aEecQYV3RIhIm41IMP0GMRP1yIRFNbuKyNxQcX5GDqAEYB7P3hCGpDvQyH6eWDl44AzE/AnyKrMGmxEE5/mQl/ZiB8GP1R6XM6jhnjjagNd2TInOiIS6aO7Od00Gd1aD8ckD/cGgUDFiLJ1AarPGPxUW6xErEWYMoAphLYnvAD6kM8DIJ52X4RdvltQ7/4DjDxAHO0EzWcUKPh2H8WApiP4c+YsJu+lDpdB32ytv/vzPT6bDjeV8HR1Uu1Vx/gbnA8Cn33oVAQo/F44Lcf5f4xuOglhHvQUQzMkYKpBxgOsRRg6KgCbDJzoQjxNAjmDft/w2HTcTCUzDiVg1BPAa9FVGDawkhs+dYLaU6+SLAWsKmjt6aoH0cW++DkMj8UntTvQ/b0wuRzOVgHgHgAZs3AS00aEDnMCuCju9W4H74ech1X//LpM7MdrXDRcRmmh10Dc1gFUh31J2BAGrC9BHjE58Xo+TUGw6SzkXubgKHVUCaR+kUqZw5PvaX/Vg7EnIhn06ntPY98MC85LMaxtZ54LbZJWeKqiOq3Kbk/Au8kAoKfATn/T9rplrbXmM0A9jR1wKRGOajQwKITURW1Eph4Q4LisACUaklnd5iUyqsOizBnR572VKqD0v3OPvXtnwCPmx2Q0Qvp5b8eYzZ3AOFNgCkhNnRC6kqiKqLq7SpgVboIDSEeKNHwLgpdmNlOVrhl9y8EBUai3yF0n0ptqKeAdxI64HkbKG7puajemLRWDm8ERlV1gHncC0QOtAz4XVkH1iWeRV2oFyro7Skq805tmHmOFixkqN92/OlgMxjC1ITF97HOpP7tNCAoBKQ9SKpemIebgBE0KvcmiRyialsOMBXAClEufo7YiPoQTxaVkloSsQ43OiftVNL5K81x3X4B8pys4LohDn+Ie9J7SFXwTtT+p4BNdzvQRiMqz3+8MTNaaW7YmcaelLMqnqbb9DOrgIH3qvD9mQRcFG5j+9LaMAGkvna4ajsfBY7LkLzaEVv9d2BM5F1lH0lzSlUMQ90+BjCngd0PeUpCj/+FTSClsU3H6KwJqCePVSgn9P3FjzHphhjfXbmJ+cdy8M3mdEwLu4b39lUqk6htCmQoTPo5p4B5OfyjyTuZR5sBhuaNNPXpCZK+30OlXwnlqukiwByEMom97Rv1wT4DeN8yQjKp7xAogNerO9j+7bmA0h+gCmByASbGSOWsCTce6HcUWFLQgdon/DH/H6ZnUhOnZsS2AAAAAElFTkSuQmCC;" vertex="1" parent="1">
          <mxGeometry x="30" y="372" width="83" height="83" as="geometry" />
        </mxCell>
        <mxCell id="fzYEetxtUc2qvv0lDvPF-3" value="Gate" style="shape=image;verticalLabelPosition=bottom;labelBackgroundColor=#ffffff;verticalAlign=top;aspect=fixed;imageAspect=0;image=data:image/png,iVBORw0KGgoAAAANSUhEUgAAAGIAAABjCAYAAABg+dWrAAALf0lEQVR4Ae1ddagVTRR/dnd3iyiK/WxF7Hii2C2IhWKh/mEXit2oGM9CMZ/xh4qF3YGBrc/G7tbz8Vs8w9x7t+7e3fvim4FldndmZ8+c35kzZ2bvPSeCVDLlwMuXLykmJoYGDhxIVapUoUyZMlHq1Kkpc+bMVL16dRo0aBDt2bOH3r9/b9qOVWGEVYX/e3nv3r0pIiLC8siVKxeNHTuW3r5964hlCggLth09etQSBBmookWL0u7duy1aDSxWQATyJOBOr169qE2bNrR48WLav38/nT59mg4ePEjLli2j7t27U5YsWXzASpo0KS1YsCCgHbMbCggz7tgsi42NpZEjR1KKFCl8AJk7d67NFogUELZZZV0RoyVfvnwCjGTJktHevXutHyQHQFy9epWWL19Oq1evTtDHqlWrKDo6ml69emWLUVzp79+/fKqb37p1iwoVKiTAwCR+//593bryzaBHxOTJk8VL5EkqoZ5D31slMHf06NEUFRVFkZGR1KBBAxo+fDidPXtW99FTp05R2rRpBZ8wx1iloIGYMWOGeEFCZT7TnSRJEjp37pwVj+jQoUO6fYbq6du3L339+jWgjXnz5olnsO64efNmQB35hidAFCtWTJMeSE6tWrWoZs2a8eKoXbu2JtEpU6bUmATrxg4QYFiLFi0EYxlIzuvUqUMfP36U+Urfvn2jkiVLimeGDh3qU+5/ERIQ2bJlo4wZM4qXMWGYsCZMmEBPnz71f1+cX2PBxRNqMEBcvHiRxo8fTytWrKBx48ZRuXLlfPrdrl27gL7NmTNH1KlQoQL9/v07oA7fCAmITp060b1796hfv36UIUMG8VIGJGfOnDRs2DC6c+cOvy/O83fv3jkCwp9wqCOoJe4r8m3btvlUu3z5MiVPnlyrA/V09+5dn3L5IiQg2rZtK9rCSzFCZML4HCD179+frl27Juq7eQIGQHVgMm3ZsiVBepGwP4RrHNgTQnILCK0xImratKnoc926dfm2lkM9yRbUgQMHfMrlC9eAwLArUqSIRhQmwXTp0gkCGZA0adJQt27d6MyZMzINIZ9PnDjR513YhEMqUKCAuA+GIGFzzo5qOn78OA0ePJjq169PzZs3pylTphAWbv7pyJEj4h3YEHzy5IlPFWwUcv+3bt3qUyZfuAbEp0+fBPoAYteuXTRr1iwqXLiwIIQJgrXRvn17QmfdSJiPuG3kvNeTN29ecT9//vzaq+wAMWbMGML8IbeJc6wJGGSm+8WLFz6awF/IatSoIdrZuHEjPxaQewIEiGb1gMkRS/0SJUoIguQOQqXs27cvgLBgbsCenz59OsG0Rv7gwQPtcSw6cY0D50hWkzVolenzP8eovnDhgiBPBgLgyWXQEqVKlRLtma2yPQPi5MmTglicfPjwgZYsWRJgbXBHGzZsGCBtPg24dIGVtJFqev78uc8GXvHixWnatGk0YsQIH1WLOYcTjBUYJegHFnFog9Pjx4+FEQOQsCthlMIGBBPw48cPWrNmDVWuXFlICoOBHOsODOFfv37xI47zR48eaRYbrDYwBenNmzeGQGzevFnQBObKWxPr1q0T6grGBzMcWx4PHz7UNv06dOhAf/78EfSuXbtWtIc56vPnz6LM/yTsQDABYPSmTZsIiyEZCD7HJIeOADinqWrVqpokw3CoVq2a1ozZHDF79mxBS7NmzXxeCybiqxzTZybd/OD169epZ8+ehAWkbGFyuZzHGRAyEZhcoZq4k3JetmxZ7TsAVFuwCR9puC2oGSQzIGQJhgUor5axsyqvCTDa7KZLly4RQDFL8QIIJhCdbdWqFcHqYgZyju0CTKRYB9hNWM1CGnFUqlRJe8wMCKgiLLz4nVgXbN++XVtNw+ri+9gqkVWQXXrM6sUrIJhQmLXQtzBzufOcQ9dOmjSJnj17xtUNc6xkoUJw8KrWbI5AQ5iY+V1GeahWnh7B8RIIJhRmKbaQ5S1lZk6ePHkI9j5PwvyMVf769WvDyRrPYk7q3LmzLhhQTfhc6kWK10Bwh6FfsUWit5+FbZUhQ4ZYbjNzW1ZAcD1YSVhRY54pXbq09m36xIkTXOx6niCA4F7jAw0+yGTPnj1AYgHSgAEDLPez7ALB78R+0c+fP/nSszxBAcFcgMUCtZQ7d+4AQDCHmE3owQLB7/Q6T5BAMFMwYU+dOtVnPwv7QWbfoRUQzD0Pcmyn8CSO7Qsw2ygpIIw448L9K1euKCCYj/I2OKTTf9OP63mRY8dTjYh/nFVAhCZiCXqy5q6rESF9s1YjgsXCWa5GhI0fmDljbXBPKSAUEMFJjFltNUeoOcJMPoIqU6pJqaagBMa0slJNSjWZCkgwhUo1KdUUjLyY11WqSakmcwkJolSpJqWaghAXi6pKNSnVZCEi9ouValKqyb60WNVUqkmpJisZsV2uVJNSTbaFxbKiUk1KNVkKid0KSjUp1WRXVqzrKdWkVJO1lNisoVSTUk02RcVGNaWawqCa8KfBpUuXaq554OoBB9z04B+gnBQQYQAC/8dmZyv8Q2Pk/L9pgKGACBMQ8v+lGQy4g+akgAgDEFBN8KkKB7jwaIOjdevWmtseBcQ/X9myWwP1I2QWC2e5Ml8Tm/kKvxVZs2YV/9w5duyYM9Fw8JSaI6Q5As4Ge/ToQY0bN9aOGzduOGCps0cUEBIQzljozlMKCAWEO5LkxEm77JJatprgJgGOz+HKB4cd7zFu9UKNCGlEYLKWPXwhEkm4kgJCAgLriIIFCwqrSf3POjgxdG0dgRGRI0cOAYQyX+MICGzO7dy5k9avX08bNmwwdUwSHInWtZVqklSTNbu8q6GA8AMCPlCxSee240ErCBUQEhBfvnwh+EotX768dsBjTLhSMEBAWNh5ezDxI7zui6uTteziLT5M1t+/f9diA/Xp04dwIM4FtmHYk3+iBALmK/vIxscbtzzh25FEoxHhvxHJH5U4T5RAQDXBYS2+piHGEHvLt8PIUOsoIKQ5AroXYEAKcZjF0wmV8f7PGwEB1YQAHHBHimBL8JAJ9ZQ+fXptvZMoR4Q/c8J5bQSEHg0QkEQxWcuRpORNP71Oh+ueDAR8eGO+MkooYz/fGBHhtO6MaMJ9Q6sJwxpuO3HAMyQfchgZuG6OD0kGAq6qb9++LehlujlHGepgwgYQCMDEZUY5eAB162UyBALBNBBjDjuq8oHQLmx1wFUzwrXoRSb0kmj/tmUgwFwEXZJpls9RhjrcB3hQlsv1zsEHhHrzMhkCsXLlSkEsE22UI6QA4s3BZA3nJM2MkYEwojHU+40aNeLXeZIbAoHwM3rE68V2kOtVrFhRCysQTt2rB4QVnTLNds7luEJeIGEIBOIsoINYD8gHooPgGqEimzRpohtSAB1DkO169erRwoULfWL1eNEJGQgsKhHklemUaXd6fv78eS0CpRe0c5uGQHAFqxxRaWfOnEmIt2YkhdDDkCiEIPPiE6oMBCwieLhPaClkIOQOIxIu4j6XKVNGV61hpGA/qmPHjrRlyxYtJpz8vNNzGQgr3+BO3+H1c64CwcTihwSHDx/W4oNiu8NIB0N6EXgVsYVCkWIFBHPeJMcCCmElEaKG7Xc9YGAKjxo1ylEcUwWECQB6RVgY4TMqftkNe14PENxDDDrEhbAT6w3vUUDocdvmPUQzRMhMRMfliOv+wMDywo7u/PnzRdQsveYVEHpccXAPca4REzQyMtJwlOBjDiyv6OhoEZ6SX6WAYE64mCPkGSwvRGT0HyF8jbVC165dKSYmRtteQSxSNp2V1eQiGGgKP8+B5YUo7Xr/oWNQEJ4Z0Rw5fKUCwmUg5OYQp3THjh3UpUsXnx+xMRhyroCQOefhOcIXY56IiorSDRCogPCQ+UZNI8grQlbC8kqVKpU2p+BfS9gnS2jJk5V1XDAhNjaWFi1apIW15KDfcUGH03f+By2g1f5KJvxiAAAAAElFTkSuQmCC;" vertex="1" parent="1">
          <mxGeometry x="30" y="234" width="98" height="99" as="geometry" />
        </mxCell>
        <mxCell id="fzYEetxtUc2qvv0lDvPF-5" value="" style="edgeStyle=orthogonalEdgeStyle;html=1;endArrow=none;elbow=vertical;startArrow=block;startFill=1;strokeColor=#545B64;rounded=0;" edge="1" parent="1">
          <mxGeometry width="100" relative="1" as="geometry">
            <mxPoint x="128" y="282" as="sourcePoint" />
            <mxPoint x="228" y="307" as="targetPoint" />
          </mxGeometry>
        </mxCell>
        <mxCell id="fzYEetxtUc2qvv0lDvPF-6" value="" style="edgeStyle=orthogonalEdgeStyle;html=1;endArrow=none;elbow=vertical;startArrow=open;startFill=0;strokeColor=#545B64;rounded=0;" edge="1" parent="1">
          <mxGeometry width="100" relative="1" as="geometry">
            <mxPoint x="130" y="432" as="sourcePoint" />
            <mxPoint x="230" y="402" as="targetPoint" />
          </mxGeometry>
        </mxCell>
        <mxCell id="fzYEetxtUc2qvv0lDvPF-9" value="raspberry pi&#xa;" style="shape=image;verticalLabelPosition=bottom;labelBackgroundColor=#ffffff;verticalAlign=top;aspect=fixed;imageAspect=0;image=data:image/png,iVBORw0KGgoAAAANSUhEUgAAAQAAAAEACAYAAABccqhmAAAABHNCSVQICAgIfAhkiAAAAAlwSFlzAAAG7AAABuwBHnU4NQAAABl0RVh0U29mdHdhcmUAd3d3Lmlua3NjYXBlLm9yZ5vuPBoAACAASURBVHic7J13eFVV1offfdMrSQjphRZC70gLvSMdG6ijjnXs44wztrGPlfGzjWXsOiqKDem9ht5CCS1AAklI773c/f1xwUFMcve599ySmPd5eFCyzzkryd3r7L32Wr8lpJS08vtCCBEA9ANqgQNSyjIHm9SKgzA42oBW7IcQoqcQ4mcgD1gPbAHOCyEWCCFcHWtdK45AtK4AWj5CiEjgWeBmGnf6S6SUM+xmVCtOQasDaMEIIfyBvwN/BrwULrlWSvmtba1qxZlo3QK0QIQQbkKI+4BTwGOoTX6AG21nVSvOSOu+r4UhhBgGfAJ0seDy7jqb04qT07oCaCEIIdyFEC9hCuxZMvkBcnU0qZVmQOsKoAUghOgLfA70svJWq3Uwp5VmRGsQsBkjhHABHgWeBNysvF0J0FFKmW+1Ya00G1pXAM0UIURn4EvgCp1u+Xzr5P/90boCaIYIIUYD3wNBOt3yJNBTSlmj0/1aaSa0BgGbGUKIWzHt1fWa/AB/aZ38v09aVwDNBCGEAXgZ+KvOtz4ppbT01KCVZk5rDKAZIITwAb4CbJGq25r59zum1QE4OUKIMGAF0NdGj2h1AL9jWrcATowQIgTYgO0y9FKllB1sdO9WmgGtQUAnRQgRDKzFtum5KTa8dyvNgFYH4IQIIYKANViQ2RfQzpsB45Vf6ula799Ky6LVATgZF9R61mDBnj8qLohnv59LTFflE8JWB/A7pzUI6EQIIXyBVUB/rdf2GBbFg/+ehLefO9KofFmrFNjvnFYH4CQIIQTwGRak9o6YE8/tL4zGxdW0oDMalT1AiNZntdKyaHUAzsOjwBytF819YBBz7hv4q3/z9vNQvTxU6/NaaVm0OgAnQAgxBXhOyzWubgZuf3EMCbN+m8TXNsJX9TatK4DfOa0OwMFcqOr7Cg0BWU8fN/7y/hS6D4ls8OvBkX6qt1L2FK20TFpPARzIhaDfT0CA6jUuLgbuf2tio5MfIFh9BVCnOrCVlkmrA3AsrwI9tFxw01MJ9BkZ0+SYoDBfYrq1Vbndbi3PbqXl0eoAHIQQYiRwp5ZrrrytL+Pmq/mLyTf1NjekBnhTy/NbaXm0OgAHIITwBD4AhOo1gyZ1ZN7fhig/Y9RVXZl6a5/GvlwDXC2lTFO+YSstktZiIAcghHgReER1fKc+ITzx5UzcPbXHbPetT2XlJwfJSi3GaJQIIX4uyCp7Skp5QPPNWmlxtDoAO3NBwXc3iicwwZF+PPv9XNoEq/b2MMtb8zu9c79eN2uledPqAOyMEGInitl+Hl5uPPfjXCI7B+ppQh4QMb/TO7V63rSV5klrDMCOCCFmoCHVd859A/Se/ADBwJV637SV5kmrA7ATF3L9n1EdHxUXxJQ/NhrEs5Y7bHXjVpoXrQ7AfsxBscRXCPjjcyN/Ke6xAVO+OnX3WCFEWyHEXCHEHCFEN1s9rBXnpTUV2A5cePs/rTp+5NyuxA8Mt5k9tTX1vPfw+u8AH8D94r8LIdYCN0spM2z28FacitYVgH24CuipMtA3wJN5fx9qM0Pq64z8647l7FiWEsglk/8C44H1QojWKsHfCa0OwD7crjrwur8NwS/Q02aG7Fx+ikNbmxQC6gL8w2YGtOJUtDoAGyOEiATGqYzt1CeE0Vfbdiu+6ftjKsNuFELolnjQivPS6gBsz40o/pwn/qEXQjk52DJKCipVhvljOi5spYXT6gBszx9UBnn7ezB4cidb24K7h3Lct8qWdrTiHLSeAljABc3+XpgCe92AeqD4kj8lF/4OvvB1syTMjMPNw8Um9l7KsBlxpBzINjdsm5Qy1+bGtOJwWh2AGYQQrsBsYBimCd8LG2jpjbnWlv0//seI2fGsX5hM+omCxobUo1GerJXmS+sWoBGEEEFCiEeAVEz98x7EdEym++Tv1CeEmK5KAh5W4+3nzpNfz6JL/7DffM3V3UVGdAy4W0q50i7GtOJwWouBLkMIEQ88ANwEeNvjmbf9c5TdVgAXqa2p58i2DJJ3ZFBWXEXfUbH0HhGNp4/bemDC/E7vqHcXaMZckGXrgGm7dvFP28v+2wMwNvKnHjgObJBSrrK3/dbSugW4gBAiDvg/YCoahDr04MyRPIZV1uLh5Wa3Z7q5u9B3dAx9R/9GXmwspjwA5bqF5sCFjkvdL/zpdsl/R6PP7/vvQojvgVullMU63M8utK4AACHETExNOdo4yoZ2Uf7c/sIoegyLcpQJl2IExs/v9M4GRxtiKUKIaGAMJoc2Goi106O/llLOt9OzrOZ37QCEEAbgeUzqPHZ96zfGxBt7cuMTCRhcHG5OFjBkfqd3moVs2IX05bH8b9Lb/ky1cYZKKXc48PnK/G4dwIWjvK8xBfacij6jYrj/rYl4ettvS9AIJ4Hh8zu945RHgkIIf2AucD2mie8sQe2/SSlfdbQRKjjLD8yuCCEGAXtxwskPkLTpLM9e+xOFOeWONiUOWPnVqbuVO43YGiGEuxBilhBiEZANfIwp1dqZPstxjjZAFWf6odkFIcRQYDPQtLi+g0k7msdz1/1EaaHDE/L6A4u/OnW3hxBiuBDiByFEmhDipBDiayFEL3sYIYToJIT4N6atyY+YKixtVzVlHQ7/panyu9oCCCE6AjuAdtbcx9fVlTGhobT38SHUy4tQT0/83dzIr64mq7KS7KoqjpaUkJibS72VP98u/cN47IsZdskSbIpPntx8dO1XR+L57UujBvizlPIdWzxXCNEf+Dumpb5jfwjqvCSlfNTRRqjwuzkGFEIEAsuxcPK38/Dg6pgYZkRFMTo0FA+D+cVTQU0NyzMzWZyezuL0dGrV23b/wol9Wbz38DrufWOizQuFGuPI9gzWfX2ksZRmd+BtIUSulHKRXs8UQozFFJydoNc97YjD926q/C5WABcUedZiig5roo2bGw93784D8fH4ulruL1PLy3nm0CG+OHPGolXBtX8dzIy7+lv8fGt4fv5iju7KNDesChgrpdxuzbOEEBOBfwIDzY11Yv4spXzd0Uao8HtxAHcC72m6BnioWzce79GDQPfLhXMs53hJCQ/t28fyTLMT6le4ubvwwpJriOik3EdUF6RRclu/j6gqV1IRzwWGSClPa32OEKID8BowS+u11uIR5INXRBs8w/zxCm+Dm68HLl5uuHi54+LlhquXGy5ebqQt2kf2hhMqt7xDSvmBre3Wgxa/BRBChAMva7nG19WVz4cOZXZ0tO72xPv7s3T0aP6RlMQ/jxxRvq62pp4PH9/IP76eZfetgFTfubQDlgshhkopC1UuEEJ4A48Cf8XGQT33IG8CukfQpnsYfp1D8Ipog1eYPwbFEunUr/aoPqrZbAFavAMA3kZDhl97Hx9+HjWKXgG2e9MK4Pk+fegdGMgtO3ZQUafWpfv4nvOs//qIcoNQPRAGQWz3tpzYm6V6STymrMoZZu8txDXAAkzpuLrjFxdCUL9o2nQPo02PCLzC/K26X2V2ierQMqseZEda9BZACDEC05GfEjE+PuyaNIlQT/udLm3IzmbC+vXKcYGAEG9e33gDbu72C4jv35DGgtuXa71stpTyp4a+IIQIAz4FJllp2q/vaxC06RFB6Kg4QkZ2xitc38zuDVP/TW2p0gnfCCnlVl0fbiNaeh7An1UHeru6snjkSLtOfoAxoaE829tsK+9fKMqpYOuPx21o0W/pNyaWUVd31XrZG0IIn8v/UQgxFTiIjpM/sG8U3f4ynpE/3skV71xH7LUDdJ/8dRU1qpMf4JyuD7chLdYBCCHao7AMBdOS/NMhQ+gbqHsbLiUe7dGDKRERyuOXfnAAabTvyu2WZ0Zq7VUQAzx58X+EEB5CiDeAZViZhwHg4uVG9Kw+DPv8Zga9dS3Rs/rgEfQbf6MbVVnKy38joC3C60BarAMA7kMxceRPcXFcHeO4xEABfDF0KNHeavIDWanF7FufalObLsfN3YWH3ptMaKymN+ufhRDdL3Qd2gVY3ZXYJzaIrg+OZdSPd9HtL+Px7WAfIRUN+/9sKWWzabzaIh3AhSo/NTFOV1ee7GWXbNYmaevhwadD1RuC7Fqp+aTNanwDPHn4w6n4BnioXuIG/ICp7kJ9n9PQs9u3pe+LMxn+31uImdsPVx/9jmZV0LACaLLpgrPRIh0AMABFWev7u3Sx+76/McaGhtJb8fThwMazGOvtH8AN7xDArc+P1nJJPGBxjwHPdn70eGQSQz+7iZCEzpbexmoq1R1As9n/Q8t1AJNVBvm7ufG37vaV4jLHnXFqhWRlRVWc3Kd8NKcrV0zuSJ+Rtt0yufl50uXukSQs/CORV/ZEGByrj1ClvgVoXQE4AVNUBk2NiNA1y08PbmjfHh/FlOOkzWdtbE3j3PT0CJsVKIVP6EbCwltpP28QBnfnSFXRsAJw3C/FAlqcAxBCuAFXqIy9MjLSxtZox9/NjXmxaupV5443Ku1tc0Jj/Jl+Zz9d7+kR5EPfF2bS68mpuPk7x7bsIhpiAIdtaYfetDgHgEn7zeyrySAEU8Jt14LbGq5RdAAZp5SybW3G5Jt64+6pzxs6fEI3hn1xMyEjHLfPbwxjbT3VBcrZvUm2tEVvWqID6KgyqF9gIG09lKPZdqWjr6/SuJxzJdRW12u+v17BQ582Hgybbp34jZufp9O+9S9Sca4Q1H5k2VJKxwRmLMQ5Nlj6oiQGGeNju6QRa4n29kZg/jMnjZLss8VExQWZvWddrZEVHyex4dujZKcV4+pmoPfIGKbd1pf4QZavhCb+oScbFx216FrfDm3p++IsvCPtW+GolYJ9ytv6A7a0wxa0xBWA0sY+wst5u1+7GwyEKdpXVWE+56Smqo7X7lzBwld3kJ1mkqyvqzWyb10qz9+w2KqcgthuwXTuo71ZUsiIzgx+/3qbTP668hrKUvORdfr0NsnfrSyM3OwcQEtcASidF4U7sQMAiPXx4Xyl+VbeKluAH9/e0+iJgbFe8vaDa3hx2TVEdrIsFbrvmFhSksw2HDUhoNPNQ+l0yzDdhdiLDmdy9LV1lKbkgASDmwshIzrT9c/jcA+w7Pct640UHlA+2WtW+39omSsApd2aNeo+9kA1OcmcA6itqWf9wqaX6PV1Rr79105l2y6nx1D105Qef59Epz/qP/mz1h1n9z0LKT2Z88snwFhbT9b642z7w6dU51pWoVucfJ66ihrV4c1uBdASHYDSui+7yrmFW9MrKpTG1dc2/e2W5FdSVmT+e92z+oz6W/wyOvUJUe5h4Bmiv8J4dUE5R19b22iBVE1hBUdeWW3RvfP3KO//CzH1CGxWtEQHoFSIobK8diQnSkuVxvm1bXqlUK9hH/zNq5atAlxcDcT1V4sDVGbp3zYvd8spakuadnJ5O85QU6DmVC9Fw/5/g5QatJOchJboAJR+Y5lO7ADOV1ZSWqtWUBYc3vQbtV2UP6Exako4yTsyOLjFslT2wFC1o8vK88oJNcqUpuToOu4idRU1FCefVx2+TtPNnYSW6ACUVBsPFxUpHu3qT3ldHdlVVY0+X/Xt7+JqoE1w08EtIdDUenzpB5ZtY3381XIqNGTUKePWRi3ApzruIoUH0pH1yi/1ZukAnDsSZhlKDiCzspL9BQX0DzJ/hm4JdVKSmJvLmvPnSSsvJ7Oy8pc/JRfe7h4GAzE+PrT38aG9r6/pbx8fDhYVKT0jKMxXqUhm3LzuLH53H5Vl5oNZyTsyKMqtIKCdmjbBRVRLhCvP678FaNPDfB6Di6cbvh2VCkR/IX+P8vI/Q0rZ7Pb/0AIdgJSyQAiRh0I58NLMTF0dQHFtLSszM/k5I4MVmZkU1jQ94aqNRk6WlnJS8Y1/Oar7bm9/D8bN78HS/+w3O1YaJTuWpTD5Zm3l+z6KDsDcXt0S2g3tSNuBsU1O2Li7RmBw01a8VKDuAJrl2x9a5hYAYKPKoCXp+lRuppSWcl1iIu2+/57rEhP5KjXV7OTXg55Do5THTrmlt3L13vYlKZptUd0C2ErKrOfjkwno1cBxpIDYawYQM0db4VJ1fjllZ/JVhzdbB9DiVgAXWIqpeWST7CkoYFNODqNCQix6SFZVFc8eOsSHp05Z1PbLWnoMUz9/D2jnzci5XVn3lfleBClJ2WSfLVEOHoJJLUgN2zgAj2BfBr19LedXJVOYlE5VTim+HYMJHd2FgJ7qeosXyd+Vqjq0Hlil+QFOQkt1AMsx5QOYXeE8kZTElgna2s+V1tbyytGj/N+xY5QravrrTVCYL8GR2s7Up9/Rlw3fJCsVAx3YmMakP6hLpfm2USyssmHkVRgEEVN6EDHF+r4J6T8fVB26UUppWQKFE9AitwBSylzA/IYX2Jqby8rzykc9HCspYeDKlTx/+LDDJj9AQVYZHz62kToziUCX0i7KX1nJJ+1oniZ7vB28BdCTkmPZFB1WFvZdaEtbbE2LcABCCDchxGAhxJ+FEN8JITIx6QIq8Zd9+5Qm8/LMTIasWqV8TGdrNnx7lH9ev5iiXPUEl06KhTvnjinvfwGUsg0B0NCIprqgnPQlBzn2xgZOf7pDy7LcKtIW7VUdWotJ9LTZ0qy3AEKIHsDtwI2AxeH85OJibty+ne9HjGg0Rf3l5GQeS0rC6GSdlE7sy+KJWd/x0LuT6djbfCyjQ081Sf70k4UY6yUGF7Wk/dx0Nafo5q92Fp+5Kpnjb2z4TTOOtle0p+ejk/AIVks80kp1QblqA1CA1VJKx8ky6UCzWwEIIVyEEDcJIbZhkl96ACsm/0V+PHeOpw/+dt9XJyXXb9vGIwcOON3kv0hhdjnPzvuJbUtOmh2r6gBqqurISlU/s1d1AB7B5nUYzny5i8PPr2iwE0/+rlQOPr3MZrGE9B+TMNYqi6w06+U/NDMHIIQYAuzB1FdOXURfkecOH+aDlF8fgd29ezdfpabq+hw3g4FAd3ddC+Jqq+t576/rzabytgn2IjBUTQwlK1UtIQkgL0Mtw8+jXdNv7tSvdnPyvS1NjilMSuf8GstESJrCWFvPucXKFb1VwGLdjbAzzWILIIQIAl4CbkP3QtL/IYE7du0ipayMl/r25aUjR37jELTS2c+P6ZGRjA8LI9rbm3AvL9p6eCCAGqOR7KoqsiorOVZSwrLMTFZmZlKsWAdwOfX1Rt64dxVPLZxNTLfGO+Z06NmOwmzzGnfVlepBTvUVQOMOIPWr3Zx4V62Xa9GhDMIndlMaq0rW2mPUFCrHU76TUjpHMMgKnN4BCCFGA9+iQz85VV5JTmZzTg4787RFwi/i6+rKA/HxXN+hA938Gz9LdzcYiPb2Jtrbm0Ft23Jjhw7UGo1szsnhrRMnWGxBolJVeS2v3LaM536cS2BIw2/6MMX2XrXVGhxAhtpc8GzEAaR+rT75Aapy9J97Z79TOji6yJu6G+AAnHoLIIS4FViNHSf/RXbk5WneZroZDNzTpQspM2bwfJ8+TU7+pu4xLiyMn0aOJHHiRBLaaf/WC7PL+ejxTY1+vbpSbYWhKjgqJeQpOgCPdr/NXUj9eg8n3lGf/GDqEagnRQczKDmhfJy/Q0q5W1cDHIRTOgAhhEEIsQD4EFN/Oaend0AAR668krcHDtSt1diw4GC2TJjAV8OH461RwWj/hjQSFzccFKws19cBFOdWKI/17fjrrYlp8jfurBpEoLt8eNqifVqGt4i3PzihAxBCCOBr4C+OtkWVudHRbJs4kTg//dVuAObFxrJ1wgTl7sEX+fy5rZTk/1b3QKUqEMComLRzYp9aIpVHkA+el6wAUhdaMPmB6Nl9G877t5Cq7BJyNps/QblAJvCdbg93ME7nAIBngWv0uFGMjw9jQ0OZHB7O9MhI5kZH0y/QMuHLxniqVy8WjRih3M7LUvoFBrJ78mSuaKveDrusqIpF/7frN/9eWaq2AggIUXM4h7aqxSr8u4f98t9p3+zlxL+1T/52CZ2Iv3e05uua4tSnO7RkKL7XnNp/m8OpgoBCiGuAJyy9PsTTkysjIhgVEsKo0FDaN6D9X1FXx6zNm1mTZX3/hvvj43najq3FQz09WTp6NANWrOCcombglh+OM+f+gb8KCKquAIIj1FY0qg6gTVeTA0j7Zi/H396odM2ltEvoRJ9np2su622KwqR0MpYdUh1eDbyv28OdAKdZAQgh+gOfWHJthJcXrw8YQOrMmXw8ZAg3dezY4OQH8HZ1ZcWYMfy5a1drzGVCWBiv9e9v1T0soZ2HBz+MHImHQe1XV1tTz/KP/ne2XV9nVI7Yt40wn22XnVZMbrpaDkCbbmGkfes8k99YW0/yq2u0JBW9K6XUpivm5DiFAxBChAI/AZo2ucEeHrwzaBCnZ87kgfh4vFzUPhwuQvBa//58PnQonorXXEonX1++SUjARTimZfXAoCDevUKp/ykA679Opry4GjAp/lSUVJu9xsXF0Ogx4qWovv0BCg9mcPytjcrjL2KLyQ+mvIPyNOVM3jLgBV0NcAKcwgEArwDRWi4YEBTE3smT+VNcnPLb8HJu7NCBzePHE6UxuPZa//4Obyt+S8eOyl2Eqypq2b3a1P1n9yq1LkDBkb5KdQCHEhVFRAWc/myH2thLsNXkr0gv4vTnmlSQ/+9ClWmLwuEOQAjRE7hByzV/6NCBrRMm6NLfb1Dbtnw/YoTy+CHBwcyIUlfisSVP9OypnBa5a8VppFGyd22q0vgew8x/j8Z6SfL2DDUDLMjdt9XkB0hesAZjjXKiUwHwL92NcAIc7gAwLauU7Xi2d28+s3Dp3hiHFUU4AV7o00e351pL9zZtlJ3R4W3pHNh4Vrl0uM8o87oBx3ZnUlFqG+kzW07+86uPUrBXueEHwMtSSv3VTJ0AhzoAIcRwYLrq+Js6duQfPXvqbsfGHLW4zsCgIMaEam+EaUse6a4m+V1fZ+SzZ5susrmIi6uBngorgE3fHVO6n1ZsOflrS6o4/tYGLZecB97S3RAnwdErgBdVBw4LDuZ9DYEvLWxSdAAznWTpfylDgoMZrJgboFqw02VAGJ4+TSdgVpbVsEsxnqAFW05+gBPvbqamSFNTmMeklM7bRcZKHJYHIIToByhtvttqPPrSQmp5OWfLzVfGAUyP1C/7TE9GhoSwM1+bgk9TDJrU0eyYHctSqNFQLaiC6uSvr6qlOreM+po6hMGAMAhTfwQhEC4CV18P3Px+m46t8cwfTHp/n2r6JpoZjkwEmqE68JHu3XXLr7+c5GK1rV2Mjw99dM4i1Ast2YHm8A3wYPTV5nMkNi7Sd/l/+eSvLa6k6HAmJSdzqMoupTq3lKrcMqpySqkrM3+M6dbGC+/IALyjAvCODsQ7MsB0CqFBkQy4y9Lvp7ngSAegtPeP9Pbmni5dbGZErmKX4L5OOvlBXwcw4YaeeHg1vfzPOFVIygH9hHCDh3ag4x+GkLHsMMWHMyk6kklFunpgtiFqiyspLq7U0tvvcl5qrt1+tOAQByCEiACU0uj+0bOncoKPJeRUm3+bAER6aesrZ09ifHwI8fQkx8qW5+6erkxUkALfpPPbv2DPWfK2n9H1nlZyHA3xqeaMo4KA01BQ9vF0ceHG9u1taojqCiDCiR0AQJgOW6RRV3XFP6jp77O8uJoN3yRb/axL0aDBZy/uklKqvRmaOY5yAFNVBo0LDdVcB6+VXMUVgLM7gDorBUvbBHsx94FBZsct/yjJZmf/TkIZYJu6bifEUQ4gTmXQdDscu7kpniyUObAJiAr1VjqA218Yg19g06uI0sIqVn6m3DGnueIL/CyE+F4I4ZzHPjriKAeg1KxtaoT2nm5aCfFQ62hjaQdfe1FnRW/CMdd0o99Y83UFSz84QJWimlALYA5wVAhxnxDC0fkyNsPu35gQwgsIMDfO44Jgpq0JUdw7pzipA6gxGlmfnU2RhUrC7aL8ueGJ4WbHFedVsvoLTWfoLQE/TPJf2y4ErlscjjgFUPpBRthh8gO0U3UAZWU2tkSd/Opqvj93juWZmazLyrJqe1JRWs3CV3YwYnY8nfo03lno5/f36Z7404wYDOwQQkyTUraoPZDTOgB7HbupbgFSy8qokxJXB2kAAJwuK+O1Y8f45PRpKnSKSZQXV7Pmv4dZ89/DhHcMYOSceMZf3xNvv/+VOxfmlCu1FbcnBhdBYKgPHl6ulBVVU15cTX2dTVu0RwNbhRDXSClX2vJB9sQRDiBYZZDqm9laegSY3Y0Apih7UmEhA4L0laNWIaW0lMeSkvjh3Dmrg31Ncf50Ed8s2Mnyj5KYfd9Axs/vgYurgcXv7FNW/dUT/7ZedOzVjuBIP9qG+xEc4UvbCF+CI/wIDPX5jV5BVUUt5UXVlBVXXXAKVWSllnB4Wzon9p7X43vwA5YIIe6VUrYIaTAh7dzvTgiRAJgtSxsdGsqGcePsYBH0XLaMIwopwTd37MgnQ4bYwSITdVKy4OhRnjl0iKp6+0/A0Ng2XHlbXz5/doumNuSW4u7lSrdBEfQcHkXP4VFEx7dFrwVXbXU9x3afZ/eqUyQuPklVhdXBzJeklI/qYZsjcYQD6ACYLSPr5u9P8rRpdrAIHty7lzeOm8/69DAYSJs1y2Z1CZeyt6CAW3fuJKmw0ObPciTtuwfTd3QsPYdHEdc/DFc328elK8tq2PLjCdZ+eZiMFKt+vp8Ct0spm21wxBEOwB1TY8UmfXuguzsFV11lF5uWZWYybeNGpbFP9eplcyXghWlp3Lx9O9VWHO05M74BniTM6sKoq7oS01W/OgZL2Lr4BF++sK3B/gmKLAOukVIqNxV0JuzuAACEENmA2Wb22XPmKB/TWUNZXR2BixYpZdOFeHpydtYsm5QmA7x45AiPJyXZqvu1wxAGQe+EaEZd3ZUB4zvY5U2vSnlxNd8s2MH6hclYOB12ANOklPrVZNsJRzmAvSgUA30+dCg3duhgU1v2FBTwRFISq86rV439q39/HrJSVvxyJHDnrl1WdyN2Nty9XBk/vK01uAAAIABJREFUvwdTbulNUJh5mXFHcnzPed64dxXFeRatBo4Bk6SUmrTGHI2jHMBiFPQA5sXG8tVw80kqlnCkuJh/HDzIj+cUVW0vwc1gYMO4cQy3oHFnYzyelMQLR/Q9ahOYCqoqHRBAdPd0Zdy8Hky/sx9tgp27juJS8jPLePX25Zw7btHLPAOYLKU8rLNZNsNRDuBJ4Blz44Lc3cmaM0c5X1+FcxUVPHbgAF+lpWG04nsP9/Ji7+TJhOuQr/B1WhrzExOtuke0tzfTIiMZHxZGtLc34V5ehHp64mYwUFZXx/nKSrIqKzlWUsKyzEzWZGXplktwKW4eLr9M/IB29knm0puq8lreemA1BzZa9DIvAmZIKdUEGB2MoxxAF0w112b5cPBgbu3USZfnbszO5uqtW8lTrAA0x7DgYDaOH2+Vg9qdn8/ItWstOubzdHHhni5duL59e809D6vq61mXnc1bx49r2v40hpuHC2Ov686MO/sr9xR0Zoz1ks+f3cqaLy16mVcB86WUP+pslu44xAEACCH2Af3Mjevo68vx6dOtzsB75+RJHtizx+qy2cuZEBbGNwkJFjUKyaysZNDKlWRWattzugjBzR078nSvXpqbmjTE+uxsHjlwgN0W6gpOuKEnM+/ur9RJqCGkUVJVUUtlWQ2V5bVUldUiBARH+uHf1rHbh5/f28c3CzQ1ELlIPfA48KqU0mmPcxzpAB7G1BHILJ8MGcLNHc0LVTZErdHIPXv22DS41tnPj59HjaKbv7+m66Zv2sTSDMXGGhfo5u/PohEj6NGmjabrVPjk9Gnu3r1b82rkvjcnMmSq2iqtorSGM4dzSUvOIzU5l9QjeZw/U4SxvuHPobunK20jfGkX6UdwpB9h7dvQf1x7wjuoZXDqwZYfj/PBoxstTTXeCtwkpdRfQlkHHOkAYoBUFJSBwjw9OTB1quYEnOLaWqZt3MjWXNt3dPJ3c+OFPn24My5OabWyPjubcevWaXrGtMhIvhw2DH+3pjX7rGFnfj6zN2/mvIZVSbsof15dfR1u7g1Lt1VX1rJ3bSrblpzk4OZzuuTsx3Rry9ArOzN4amdCY7Q5Xks4tPUcr9+9ytIMwjLgISnlBzqbZTUOcwAAQohEYJjK2PFhYawaMwaD4lagTkqmbNjAWh3agGuhm78//+rfnylNaBkYpWTAypUc0JDl9/fu3XmhTx/l798aMioqmL5pE/s12Dfv70OZdnvfX/3bqaQcVnySxN51qTatJOzYqx0j5nRl3LzuuLjaLr8g9Ugur9y6zNJjQjAlDd0mpbTvh7IJHBUEDAJmAQ8BPVSve653b55Q7Ax0686dfHzqlGUGYmojbpTS4hz8PoGBXN++PfNiY3+zT//09Glu2aHeKPP2zp35j42aojRGTlUVV6xaRZpizwRvP3deW389foGenD2Wz3ev72bvWvsKfUZ2CuSmpxKU+hpaSm56CS/fsozzZyxWLc7DpDn4vY5mWYzdHIAQwgW4CrgFGAtoXscK4D+DB3ObmVOBFy5k01lCOw8P7o2P5564OLbl5TF782arKvAEJtnuXgEBdG/Thnh/f27fuVM58DcsOJgN48fjbqPMw6Y4VFTEsNWrlfUGhk2PQ0rJjmUplmbU6cLgKZ24/rFhtA23TeJRaWEVC25fbq00+n8xbQtsvj8VQrhhKmd2A05eGpS0uQO48PAbgUdQ1AI0R1PL4a25uYxcs0ZzKm2UtzdP9OzJTR06/Krx6MenTnHrTouiwFYT6e3NnsmTdVH8tZQlGRnM3LSp2aUmu3u5MvuegUy/s59uFYWXUlNZx1sPrGHf+lRrblMJfAwskFJadaOGEEL4AQ8CDwAXiy7KMHU6fllKWWlTByCEmAa8Dag1stfAzKgovhw2DJ9LVINrjUb6rVihVNp7KaNDQ/k2IYF2jYiDfHL6NHft2kWNnYtzFg4fzrWxuv/oNHP11q18d7ZZZbj+wrAZcdz1ylibxAaM9ZJPntrM+oVWy6TXAd8Ar+ihOCSEcAXuAJ4GGktXXQbMsIkDuLDHfx3Tm99mdPT15Z99+nBtbCwCUyHNYxqX/g927cqr/fqZjdxvzslhzpYt5OuURGSO/kFB7Jk82fwRiR04XlJCj2XLbCpGYkv6jIrhwbcn4e5lG/2bH9/ey3ev79LrdssxHY9vsSR/QAgxC3gZUGmndbfuDkAIMRb4EgjT9cZNMDAoiAe6duWOnTuV895dhODToUO5QUPjkVNlZUzbuJFjJSUWWqrOyjFjmBQebvPnqGJtUNXRxPUL5eEPr8SnjZoEnFb2b0jjP49ssKas+HJKMFUZJgLbgB1Syt8IUwohfIDhwGhgMgrJdZewX1cHIIS4CfgACwJ89mZBv378pVs3zdcV1dTwtwMH+OjUKatqCZpiUNu27Jo0ySb3tpQTpaXEL1li8+f4BngSHOGLUUry0kt1bUISFRfEI59Nszhj0Rwl+ZX855EN7N+QZovb1wNnMBWOCkyK3gYgEsvnW5FuDkAI8QzwpC43szF6VBnuKSjgvj172JGXp5NV/+P5Pn14vIfy6ajd6LZ0qW6rnzbBXgyf0YXIuMD/6f2F+/5mmV5RUk1uRilnj+Wza+VpDm05R22N5dWNvUdE8/dPbKs0tebLw3z14nZqqpxeKChLFwcghHgOeMJ6e2xP38BAEidM0KXlmMR0pv/UwYOcq9BPEGb/lClO2Y347wcO8Eqy5QEvIaD70CjGzevOwAkdLArMVZbVsG9dGusWHuH4bsuKmB79bDo9h9u261TGqULee3g9pw/m2PQ5VvKZ1Q5ACHE18K21lsT5+dHV359Ofn509vVlXXa2RbX6TWEQguQrryReY86+OYxSsvL8eT5ISWFpRoZVBUdR3t6cmzVLR+v0Y2tuLiPWrNF8nbefO2Ou7c7Y67oT1l6/GoYdy1L46qXt5J/X1rPh2r8OZsZdSs2prUJK2PTdUb5ZsFPP2IBeSGCgVQ5ACNEXU5DCopK0XgEBXB0Tw9UxMXRtYFK+evQojx44oFv0+ZqYGL5JSNDlXo2RVVXFF2fOsCE7m135+ZpPDeZER/P9iBE2ss46Kurq8PnWMl/v7e9BSJQfITH+tIvyJyTany79w4jpZp0mYE1lHT+/v4+f3tmHNKp9Tqbe2ofrH1XKQNeFitIavn9zN2s+P0x9vdMUBn4ppbzBYgcghGgH7MaCM/6+gYEs6NePcWHmDwo2ZmdzXWIi2YptvJti35QpmuvmrSWltJRd+fn8+8QJtinEC+7p0oW3Bw60g2WWEfjddxTV6BeYC2vfhsFTOjF4aidiuym1jGiQXStP8e8/r1WSL7/39QkMndbZ4mdZSsapQr5+eTsHNqQ5NFMSqAbipZRpFjkAIYQANgIjtVwX6unJi337clOHDpqKWjIrK5mXmMjmHMv3UxPDw1k1ZozF11vLIwcO8LLC/tlZA4AX6bFsGckaE61UCWvfhtFXd2PSTb1w99QeozmyLZ3X7lrZZMWeX6AnC9bMwzfAcdmVGSmFLP8oicTFJ6wKaFrBAinlw2B5c9D5aJz8/QID2TN5Mrd07Ki5oi3Cy4tN48fz08iR9LHwDf5AfLxF19mbcAem/apgy5ZtWanFLHx1B38Z/zWbvz+mvKS/SI9hUTz+5cxGxUeFQXDP/4136OQHiOwcyO0vjuaNzTcy654BZtuy60wB8M+L/+Py9NNPa7r6gq7/D4DyTJwdHc2SUaMIVuzD1xhd/f25My6OHm3acKS4mFwN++vXBwz4VdqwvVmblUWigi7BlZGRDmk/psrHp0+TqlghaCmVZTXsXZvK7tVnaBftR1iseuAwMNSHkXPiyT1XSm5G6S/aA536hPDA25PodoXzNPn19Hajx9BIptzahx5Do/Bu40FJfiXlJTbNNn1cSrnx4v9o3gIIIe4H3lAdPy82li+HD9c9pdUoJQ/u3ctbJ06YHRvk7k6+nZqMNIbqFsAejUesocuSJZy0c6v0YTPiuOPFMbh5NCw40hj19UayUosJDPH5VbNTZyf9RAGHE9NJTykk81QhGSmFlBVZHwPDlEjUVUr5SxBH0yvxQnWR8nn/wKAgPhoyxCb57AYhCFZcLnezgXyWVvwUVXy0KPE4Aq36hXqw7eeTZJ0p4qH3phAYqp7F5+JiILKT8+VTmCOqSxBRXX69CiwtrKK0oAopJdIoqa838t7f1nP2qCYdx79fOvlBewzgIRqvLvoV4V5eLB41Ci8XbV5bC3mKJwMNHTHamy5+fkrjMnRMKNKbopoaym0gJa7C6UO5PDH7O1KSrKrBb7b4BXoS0SmAyM6BRHUJYvP3x7VO/kVSykWX/6NWB3Cz6sBPhwwhwoYBI0BZ3lurWKctUHUAiXl5uisX64U9tBWboiingufnLWb70pbVPUkrq784zMpPNVUNnwf+1NAXlB2AEKIn0F5l7PiwMCbaoZItX/E8Wu/MP0uI8/NT2goV1dQoBQsdwRKNCsa2oLamnnf/us7iNODmzv4NaXzx/Fatl93aWN9CLTGA6SqDBPBS375mx+mB6vbC3kIeDeHt6kq0jw9nFSLoSzMyGBVitneqXZGgLGH+p7g4Hu/RAzeDATeDAfcL3Yn2FBSwKy+PXfn57MrPp8DChKL6OiOv37uK53+6ymayX85I2tE83n5gTaMS6o3wvpRyRWNf1LIFMNvLD0xHfvY6xlLtHJzhJIG1CQqZjwA/nDvndOIbO/PylAOAV8XEEOntTYinJ4Hu7vi4uhLq6cmVERE807s3K8aMIWfuXBYOH27xZ6Ukv5LX7lqpVHFXVlRNWVE1VRW11NUaHZ2FZxGF2eW8ettyrbLkKcBfmhqgtAIQQoQASrK08+woYdWYhNflZDpJYG1OdDQfKYhqnC4r49PTp3VriaYHzxw6pDTOz82NBIWmqS5CcG1sLNfGxrI+O5tXkpM1tyhLPZLLB49t5J7XxgNQkFXGkW0ZHNt9npxzJeSfL6Mgq4za6l9n2wmDIDjCj6i4QFNQLS6IHsMinbZ7cVVFLa/etpzCbE35F/XAH6SUTV6kugUYg8Jqwd1gsKuKjeoKQM9SXWsYHxaGv5sbJbXmvfgzhw5xQ4cOeDhADfhyNuXksFJxco4LDdWsYDw2NJSxoaH8JyWF+/bs0bRl2/bzSSpKqslOK1GW6pZGSW56CbnpJb8S72jfPZj+49ozYEIH2ne3vC5BT+pqjbz9wBrSjmrWnXhBSrnd3CDV35RS8fTo0FDl8249UO3Mu8mKGgI9cTcYmBYZqTT2XEUF7ygkOdmDRw4cUB57dUyMxc+5o3NnNowfr7nj8oGNZ63R6f+F1OQ8fnhrD4/PWMSz1/3EfgcX7ZQXV/PSzUssURj6DnhKZaCqA1DavI4NDVW8nT4MbqtWSppeUaGpy40tualDB+Wx/zh4kINF1n+wreGl5GRl1aMob2+rHACY+iDsmTyZQYq/W1txfM95Fty+nEeu/IZdK+2vhZhzroSnrv6BozsztV66HbhRKqb4qjoApXW9Hp1qtRDr40O04jN/Tk+3sTVqTAwPZ2iw2vKyvK6OWZs3202J+HJ+Tk/X1GDl/vh4q1qlXyTCy4uVY8bQWTF3wpaknyjgjXtXs+CO5RRkaRMesZST+7N5au4PnD+t2fmfAmZIKZXzhnVdATiigcVIxeOyRWfPOk1zi2d691Yee6asjGu2brV7ctDhoiJu2L5dWfjU19WV23UMWga5u7Nk1Cja2HFL2RT716fxt8nfsO6rIzZ9zo5lKfzzhsWUFGg+uSoApkopNQUL9HUANs78awhVB3CkuJhv0myi1qqZCWFhDFeIlF9kfXY2V23ZohQ81INteXmMX7+eUg3Pe7h7dwLc9S246ervz7cJCXZpiKpCZVkNHz+5mXf/uk5JeEQrP7+3j7cfXPObUwsFqoGZUkrNQSNVB6BUgeHngHLbyeHhyh+Qfxw8SK0TJAUBzI2O1jR+cXo6A1eutHlM4KNTpxizdq0mBaaeAQE82r27TeyZGB7OfCfojnQpW386wUs3LaG8WJ+tWXVlLe//fQPfLNhpSdBRAjdLKTWnB4K6A1DaQBfqKBWlSoyPj3JkPaW0lA+coLlFank5zx0+rPm6k6WlDFm1ik9On9bdpsKaGv60eze37dyp6RjOIAQfDR6sy96/MZ7t3dum97eEo7syefqaH6yOC+xde4aHJy5k8/fHLLm8HvijlHKhpc9X/akqyfOqFufozb1dVLogmfjb/v0OjazXGI1cu3Wrxc6ysr6eP+7YwaCVK5VTc5uioq6Ol5KT6fjzz7x38qTm6x+Mj+cKG0fsO/j6Wh1faOfh8aumr3qQeaqI1+9ZZdF2ID+zjH/duYLX7lqpWdX4AlXAHCnlp5ZcfBElQRAhxEvA382N+++wYVyvodWWXkhMTSuOKzatiPXxYffkycqZhHry4N69vHH8uG73GxgUxP3x8UwMDydUQxB2b0EBi9PT+fDUKYs1CMaFhbFi9Gi7vJ3Tystpv3ix0tj+QUFMj4yki58f8f7+dPHzw8/NDQnkVFWRVl7O2fJy0srLWZ6ZyYbsbKsCxOOv78Etz6gp5NXXG1nx8UF+eHMP1ZUWx3SKgelSyi2W3uAiqg7gbuDf5sY5UtH23ZMnuXv3buXxCe3asW7cOM1Za9bww7lzzN1i9e+sQQTQOzCQiWFhdPX3p52nJ+08PAjy8KCgupr0igrSKyo4XlrK0owM0q3Mjuzm78+2iRN1D/w1Rb8VKzigkM9xX5cuvKnhc3iytJT3U1L49PRpi49c/7RgHAmzml6JHt9znk+e2sK545rq+C8nC5gspdTWBbcRVB3ANMBsY7gebdpw+Mor9bBLM/VSMnDlSqUPyEUS2rXj+xEjlFOKreHjU6f40+7dTlGZaC0hnp7snDSJ9j626bHXGE8dPMizCrGTmVFR/DRSk2YtANVGI9+mpfHX/fvJ0ShD7+7lyjOL5hDT9dfboZrKOrYvTWHdwiOcSrI6I/U0MFFKqVsgS9UB9AHM5oMK4PycOZqWonqyOz+fIatXa2raGePjw+KRI23WiqtOSh5S1C5sDnTw9WXJqFH0cIDM2p6CAgatXGl2XN/AQPZPmWLxczIrK7kuMZEtGlPIQ2Pb8PxPV+Ht587ZY/ms/zqZrYtPUFmmS3B8BzBbSpmlx80uouoAvIFcFDoAvdCnD486UNf+gb17eVPjHtvb1ZV/9evHbZ0746rjmXNycTH37NnDxuyWIWM1KiSE70eMoK0DYidgcqYeCxeadfCB7u4UWCkCWy8ljycl8Upysqb4QNdBEdTV1OspXVYDPAO8LKXUvYmAsiqwEOJLTP0AmiTK25szM2fqOpG0kFddTdSPP1JtwVK7k68vz/TuzbzYWKuST86UlfHUoUN8mZpqcQtxFyGcShPgjs6deXvgQIcfx4X/8ANZCsvzkquv1qUwbVlmJvMSEzUlRenIQUwlvbrs9xtCy2/zM5VB6RUVfOugjLvzlZVM37TJoskPcKqsjBu2baPX8uU8f/iwpnhCYU0NX6elMT8xkfilS/nizBmLJ/+f4uJInz2b2zp1somishZ8XF3596BBvH/FFQ6f/AARirUfaTr1LrgyIoIvhg619++hHngJGGTLyQ/aVgAGTPkAZjsrRHp7c+TKK+2ax70rP5/ZmzfrLlsd6e3NuNBQor29CffyItzLCx9XV7IqKzlfVcX5ykoOFBayLTfX6nx9b1dX3hs0iBsvqRjcmpvLnbt22awdV2MYhOCWjh15rndvzeW5tmTGpk1K2oRLR4/mygj9moA8d/gwTx7UJMRpKSeBm1Rq+fVAU2MQIcQrwMMqY+/o3Jn3r1ASEbKaL86c4Y5du6iqd0ifNV3o7OfH9yNG0Dsg4DdfqzUaef34cd44ftwusuGTwsN5tV8/ejVgi6OZsmGDkjjJijFjmKyjOI0ErtqyhR90bll/2SP+jUm7324KNlrXdErbAIAPUlJ0yVQzxxNJSfxh+/ZmPfnDL/Q+bGjyA7gZDDzcrRupM2eyKCFBuQDKEh6Ij2flmDFOOflBXd9Rb0l6Abw7aJCt2sulAhOklPfZc/KDRgcgpTwCKNVDSuC6xER251uV9NAk/z5xgn8esW15pq3xMBj4ceRIpQ+sqxBcFRPDpvHjOTh1Kk/27Mno0FBdm68UOSbYpYzqCsgWPSlCPD15qGtXPW+ZCtwBdJFSrtPzxqpobQ32D0D5jK+8ro5pmzaxZNQo3fPFV2Rm8sDevbre0xG8f8UVyspGl9IrIOCXt3SN0cju/HwSc3NJr6ggr7qa3Opq8qqrKaurw9fVlar6eo4ppErbO9aghcr6eiUpcXeDwWZHlX/t1o13Tp60VqTlFPAC8LmU0jGtli6gqgrsDnwA/EHrA3KqqhixZg1vDBjAXXFxWi9vkINFRVybmGjRMZmqKKc9mBUVxU0dO1p9H3eDgeHt2jWpMXCgsJB+KxqVh/+FYyUlSHD46UNDqHYmCvPyspn9/m5u3NelC08rqiRfQi2wDPgUWOboiX8Rs1sAIUQAsAoLJv9FaoxG/rR7Nzdt306llXv1GqOR67Zu1Xwu6yIED8THc27WLLZMmOBwzTkXIXjBTg1UwFSzr7JVKK2t1ZwBZy+WKMq6Rdr41GJmlJJG7kUOAw8AEVLK2VLKxc4y+cGMAxBCuALfA6P1eNjnZ84wZNUqVmRmWlx99XJyMkcVq/4u0r1NG/ZNmcLrAwbgf0G3fuekSXw5bBgxds5nv8hNHTvatWehqxD0U0x3/jI11bbGWIhqazJbBknBlGqsQf/yZSnlm1qluuyFuRXA68BYPR94sKiIqRs30n3pUt5PSaFCQ7fZk6Wl/FOjkMbE8HC2TZz4mwi7AOa3b8+pGTNYPHIks6Oj7ZboIoCneva0y7MuRXXVs+jsWacrWtpbUECqYnLPdEWBGGvQkGPgHA0GGqHRT7wQ4g7gHls9+FhJCXft2kX0Tz9xz+7d/CclhW15eRQ1EOQpqa0lpbSUO3ft0pTld3PHjiwbPbrJhCRXIZgRFcUPI0aQOXs2bw0cyJzoaJsmv1zRtq1DVh7DFHUIC2tq+O+ZMza2RhuqnYmCPTyUVZetQUNLM6d2AA0GAYUQI4G37WFAQU0N71ymRBPp7U2wh4cpml1VZdHbaFxYGB8MHqypJiHYw4N7u3T5RWHobHk52/PyOFVWRkFNDfnV1eRXV1NjNP6SFRhxyZ/Zmzcr5anP0LaH1I3pkZG0cXOjWCF+8sTBg1wTG4uvA3QeL2dbXp7y8v/KyEi7iIhqqHhtXg5ACNEW075fUx6vh8FgcQ7+5WRUVFiV8Rbn58eihASrC5JifHw0valVZb7ssURtCC8XF65v3/43DrchzldW8nJyMs9pkDC3FY9p6Exkr59tqPoK0akdQENbgMfQaPSTPXuSMmOGRefZeuPp4sKSUaMItKNSDUBRTY2SA2zj5ubQLLvbO3dWHvuvo0dJcnBHpdePHVNu7Rbo7m633pQtZQXwKwcghIhGw77fw2Dgy2HDeKZ3b6K8vdk0YQK3Obij7f3x8cTbMbp+kfOKCjKOLqzpGxjIQMX9a2V9PTM3bybXQWKvq86f56/79yuPf6R7d7ttWarVj7ObjwPAJDygnEL14ZAhzL9EBNTDYOCDwYN5/4or7Kq1d5FAd3eb6dObI0sxR90RzVMu5zENgi1p5eXM3bLF7v0UjpeUcO3WrcrJXpHe3twXH29jq/6HBskw58g6a4RfZqkQojsakn0e7taNGxpRAL6jc2c2T5hAf/VIqS481qOHXUUqL0Ul+AcQ7iC5tEuZHR2tqVJuS04OMzdvpkzDka017C0oYNz69UrByos81bOnrjUR5tDQOOWoLe2wlktf008BSj/ByeHhvGQmi21w27bsmTyZ70aMoLsd9OPcDAbu0LC/1RvVJaGrE4hqALw5cCAeGmxZkZlJwpo1nNVJaKMxvjt7lpFr12oKAsf7+3OLnbeeGnQnkm1ph7UY4BfNvxkqF3i7uvLxkCFKRy0CUwusQ1On8vnQoXT09bXK2KZIaNcOfwc2kgxSXHmobhVsTZyfH3/t1k3TNUmFhfRYtow3jh/XXa6spLaWh/fv55qtWzUlhwEs6NfP7hJ0qoFJmskKYCKgtDZ9MD5ecyDLIAQ3dujA8enTWT12LPfHx9NBZ2eg2h7MVgQpVp+pbhXswWM9emg+kSirq+PBvXsZvGoViYrFOU1RJyXvnDxJ559/ZsHRo5pTxB/v0cPuv/sao5HVCqIkF3BqByCklAghPgFuNjc4yN2d0zNn6ib1lVxczJKMDDZkZ5NRWUlWZSX51dUW1QkcnTaNrg6I/l8kubiYHsuWmR0X7OFB7ty5drBIjbPl5VyxapWmZqCX0isggNs7d+bG9u01xV8OFBay6OxZvk5L40yZZf31ZkZF8ePIkXavXFyTlcXE9etVhtYB3lJKpw0ECkyrgCzAbJ7os7178w8b57DXGo3kVFWRVVXFydJS5iUmmr3GRQhqrrvOoW2k86urCf7+e6WxZ2fNIlq9mMTm7MjLY8y6dVapKrkbDPQKCGBAUBADgoLo4OuLh8GAh4sLLkJwtryc4yUlHC8tZVtuLidLS62yuVdAANsmTnRIpuKtO3fysVqT2eNSSl0VRPTGFRiGwuQHmKOxpbUluBkMRHp7E+ntrTyhQzw9Hd5Dvq2HB+19fJQKVpZmZPAnnbQR9GBIcDAfDxnCfAVn2xg1RiN7CwrYW1Cgo2UNE+zhweKRIx0y+U+WlvK5endmy3+gdsIADFcZ2NHX1+7dYFSFOxydXHORIYpFKD8r1rXbk3mxsVwVE+NoM8wS5unJ6rFjdY8hqfJEUpIW9We71NNYgwFQOhB2RP666rmzo1qRXY6qA9iQne00qkQXKa6t1RLYcgjd/P3ZMWmSsq6B3uwtKGDR2bOqw7dKKdX/7MqdAAAVAElEQVTTGB2EsgOwR4nl5fgoJnbYK0HFHKo/o+oLMt/OxHsnTzqdU7qUAHd3tkyYQKyDBFyKamqYn5ioJUD9pu2s0Q8DEKYy0BHLbFVhR2c5Wx/Utq3y0nTB0aMOy7G/nGqjkdePHXO0GU1SVFPDCw5SgK6XkusSEzmhHrg8B/xoQ5N0Q3kF4MwOwNIjLL0RwC2KIp+ltbU8r1HdyFZ8mJLiVPkJjfHasWO8q1DKrDd/27+fVdq2R+84k+5fUyivAMIcsM9Wza4rqa1tUEnIEdzSsaPyicR7J0+yPc+xUnH7Cwt5WEPFnaO5d88eXrTTSqBeSh7cu5fXtK2OKjEpaDcLDCg2B3HEMZuni4vyKmBNlq5t0y0myttbuSa9xmhk9ubNnLNDu6+GyK+uZs7mzcpKzb0DAvhy2DBmR0fbtfDmUoxS8lhSEtdakDKshaKaGqZu3Mgb2mM1/5BS2q4bjs5cTAIyi6OWiE1p3V/KssxMG1uiztO9eilnp2VXVTFr82abfpgbol5K5iUmKgttAizo35/57dvzw4gR5Mydy8Lhw5kbHY23hefx4V5eXBsby9sDB2oO7n179izD1qzhcFGRRc9uiu15eQxZvdqSU5EfpJT/0t0gGyKALUCCuYFbJkwgQXEy6smCo0eVlqghnp5kzZnjNA0trt+2ja80yGtPCAtj0YgRdumoXFVfz207d2qS/54cHs6KMWMa/FpFXR37CwvJqKwko6KCzAt/Z1RWUlhTQ6C7O8EeHr/86ejry8iQEOL8/H65x56CAhJWr9YsK2cQgmtiYni6Vy+rhWCSCgt54uBBS3tansDUzlubZr2DEcAi4CpzAxclJDgkUWRnfj5DVq1SGvvzqFEO09u7nLPl5cQvXaopvTbe358lo0b9amLoTVp5OXO2bGGfhow9FyE4MGUKPW0sZfaflBTu3LXLomtdhODa2FjmRkczPixMuTK0oKaGFZmZfHf2LIvT0y3tV1EBDJZSOkdUVwMCeAu419zAv3Xvzst27GRzkVqjkcDvvqNcYYncLzCQvVOmOM0q4I87dvCJetooYFI1+mLYMF17219kbVYW1yUmau5rd1unTnwweLDu9jTETdu387mVkuRuF1qlJbRrR7iXF6GenoR6eiIwiZ1mVlZyvrKSxLw8tuXm6lHafKOU8r/W3sQRCEwioP80N7Cbvz/J06bZ3qIGuHnHDj5TnEg/jBjBbDvULJgjt7qa+CVLlJWCL2dCWBgv9e2ri6rSoaIiXk5OZmFamuYPe5yfHzsnTbKbyOr3585x1ZYtdnmWTrwnpfyTo42wFAOwU2Xg0ZISUqys4LKUOzUo/TyelGR1/0E9eOTAAYsnP5hONQauXMl1iYmsz87Wkn/+C4m5uUzftIk+y5fzZWqq5skf4O5ud4Vle2sPWsl7wP2ONsIaXIHNQBFgdoP3U3q6ZhUZPRgaHEzvgAAOKkR8j5aUcOeuXXw+dKgdLGuYVefP84lauWiTSOCbtDS+SUsjwN2dyeHhTI2IoJOfH2GenoR5euLt6kpedTXHS0o4VlLyS8ltcnGxVQ7bRQi+TUiwu8Kys7Uka4Qa4D4p5X8cbYi1XBQE+QqYZ25whJcXKTNmOOQM+J2TJ7ln927l8f8eNIi7HVBym1xczLDVqzUJWlqDp4uLVXX8jfHmwIHcd6FDkj356NQpbtuptCh1FNnAXCml05f6qnAxCWixyuDMykpLEiN04eYOHTR16fnz3r2sz862oUW/JaeqimmbNtlt8gM2mfyP9+jhkMkPkOck9RGNsAsY2FImP/zPAaxAUb/85eRkChyQduvt6sr/9e+vPL7GaGT6pk18nZZmQ6v+x+GiIoauXm2xvJUz4GYw8NHgwTzfp4/DbNiiLrZpT9IwSeYNlVI6n5iDFRgALiQvrFa5oKimRtNSXE/maNSzr6irY35iIvft2WPTveVP6ekMXb2a08148ge4u7NyzBj+6MDOTkYp2aqD0KiO5AAPAF2klJ9JKZtFgEILl9YBPA1qeRAL09IcVpr5lkY9e4C3T5xg5Jo1SkFELeRUVXHP7t3MsaBpxj/79GGuExxXgklSfeekSYwNDXWoHUlFRVq2TxOAh4AdKH5uNXAC+AfQSUr5ppTSOSrNbICQlxwNCSG+Aa5RuhD4ceRIZtq51fWSjAzmbN5s0bGYAK6JjeUZK9NGy+rq+NfRoyw4etQiMZK74uJ4d9AgwCQPds+ePaQ7oCAoyN2dl/v149ZOnZwieerl5GQeUesEnCGl/OWDJ4SIAa7G9Nm9woJH12JKiV8KLJVS2r/m2EFc7gDiMHUyUaru8HF1ZVFCAlNskLXWEF+npXHL9u1WtyF3EYIZUVFMj4xkakSEkqRYRV0d67KzWZqRwY/nzlks5jEyJIS1Y8fidskqprS2lseTkvjg1CmbBPUaIqFdO34YOZJ2itWWtqbaaKTj4sWqHXc+k1Le3NAXhBDhQEcgEoi68PfFPxJTFD/rwp9sIAPYJqUstvZ7aI78ygEACCHeAZQzm1yE4O2BA7nLhkduEnjy4EGbCGgIYGDbtnRv0+aXlNFgDw9Kams5fyFl9GxFBYm5uVZPzhgfH/ZMntzopMurrubDU6d47+RJ0mzcgivS25sT06ZZXMmnN++ePMnd6rGlP0gpv7ClPb8XGnIAYcAxQJME8LzYWF4bMEB34ZCsqiru3r2bH8+d0/W+9sbH1ZWtEybQV0HQsl5KlmZk8FVqKptzcmxWiv1c7948YeM+DyrUGo10XrJEte9gHRAlpbTvGW8L5TcOAEAIMRVYgqJYyEX83dx4vk8f7o6Lw8VKAZHK+noWHD3KK8nJTiP6aSlhnp78PGoUg9q2tej6k6WlbMrJYWtuLmnl5eRVV5NXVUV+TQ21RiMGIQh0dyfI3Z1Ad3d25+crRcV8XV1JmTHD4arKrx07xl/27VMdvkhKqRSnasU8DToAACHE34CXLblppLc3N3fowB87ddLcEPRYSQkL09L48NQpTR1inZWeAQEsGzVKUxKTFsrr6vB2df1VEG/Oli3KK6bxYWGsHDPGaodtKZtychi/bp2WoO4oKeVmW9r0e6JRBwAghPgSmG/xzYHBwcEMbtuWgW3b0j8wkBBPT1yFwM1goNZo5GRpKcdKSjhaUsKKzEwOFBZa+jinY1J4ON8mJNi9a/GhoiL6LF+ufDZ2X5cuvDlwoE1taoiz5eUMXLlSS0D1kJSyty1t+r1hzgF4Yjoesf+nwwK6+PnxbO/ePHv4MMnFjgvqtnFz46W+fbkzLs5hx2vXbt3Kt+pNLHjviis0VV1aS3ldHSPXrtUkTAL8UUr5ia1s+j3SpAMAEEJEAGsB+5cBaqCDry87Jk4kxNOTWqORN44f55lDh+weP7gqJoY3BwxweLuyoyUl9Fy2DKPi0loAT/XqxZMa9Awt5Wx5OTM3b9a62tsBDG+J2XiOxGyQT0qZCXxpB1ssxt/NjSWjRhFyIZjlZjDw127dODZtGrd26mS3o677unRhUUKCwyc/mARc5sfGKo+XwNOHDnHVli1K6kuWsi0vj0GrVmmd/HXAna2TX39Uo/z2U4TQiEEIvh4+vMHGpZHe3nw4eDAZs2bx5sCBNm9u2tmGWn6W8ObAgZqbaP5w7hyDV61irc4y6+V1dTx3+DBj1q4lR/ux5mtSyoO6GtQKoLAFABBCvAD/397Zx1ZZ3XH8c1paykulBZTSjsoEyhQKCBuyoREFgTjEMGVsYTFzxswZsxdn4pyLGt+2KAohGrcEGZnL5iZqRECg2AFFkDCwgrXlpbJZ+uptC4W2t6W9v/1xbpvS0fY8z73Pc2/p+SQ3N8Dzcm7C+T2/55zf7/vlMe+H4xynC1gfBwLkV1dTUFPDvkAgqn54f587lx84eOr6weG6Oubm5bkqYloQliWbFYEs2YVQiHWlpTx99KjbeoYiYLaI9P8toTjENACsAn7t/XCcMSIpidKlS43NQ7rTLsKRM2coaWigtqWl81Pf2srgxESuSEriiqQk1pSUGDWp7Lz1VuZnGBkt+cr60lLucymyoYB5Y8ZwZ7h02mRbt02EgpoaNpWX805ZmWmBz6WoRqvt+tPTPQAxfTmOy1eA306Z4nrygy5jvj49vU+76Y1ffslZg12FK+PEprw7P5kwgf2BAOtcyJQJ2s78X9XV/PLQIa4bMYLctDQyUlI6FXeb29upam6mMhikoqmJjwKBaFi1NQNL7eT3ln4bANKSk/n55Mm+3CuSIBMvvHj99a4CQHc+P3vWjy3WEFpq251JgMUY00VAo0qWJ3NzWXfDDXw/O9vzSfO9ceNI8Umb0PS3xLL2oC/K48RC3YAG9JP/7VgPZCBgmgEYpWGBlhaeys3lvgkTCIlwqK6O/Opq/tvYSHUwSFVzM1XBINXBIAlKMTYlhcyhQzu/hyYm8oxhx98PfVxsG2Uoi10UxwGgNEaS7g4pRU/+z2M9kIGCaQAwSsW67u0mKMW3Ro1y1ABzqK7OKACMTE7mFh/Va0wzAC+MKqNFafzLleUDy0XEUWmgJTJMXwGMGrUL6+sj6pk3FdSckpbma/OKqXNtPGcAH8aJffolaAdWA4vs5PcfowAQ9jvv05ursa2N9905qwIYW1V/w2ezCtOtvZPhxqZ4o761lR3xGQDeAaaKyMMi0r97vvspTvr9jbKANyIwdjTdL57sc8VdTmqqURYgwNoY+Sb0xjtlZU4st/wouNkNzBGRu0SkxIf7WXrASQAwWgfYVllJpcsVZ9OecD+96jpYaChH/pdTp6KxBx5V1ptv/5UAo9Himm+j9+KjRR26p2SxiMwTkbi2/xkoOAkARm4oF0IhHv/0U3eDMXyvd6MIHCmLDANAY1tbVPbbo8Wm06fZFwiYHv6WiDSLyFsicjdwFbAS2IS7zOA48BJwM3CViPxIRLa7uI7FI4zb5ETkgFLq3xhoA2z44gsezMnhmw5ryE2jUSwcZOePGUOiUkYOu2uPHeOnEyeS6rMQSHfaRUxltjt4q+sfROQ88LfwB6XUKLTS7rjw99eATCCIVtmt7PJdLiKVEf4Ei8c47ZN9AfhnXwcJ8NDBgxTcdttF8td9kWh4bFMM7L/TkpNZNm4cGw1ENsqamrj344/ZeNNNPoysZ149fpxi80XJIhE52tsB4cXgWsBdimeJO5xZ7Oj3wpMmBx6orXUi8wxAlmEf/ZEYyYY9OXWqsVjG22VlrCou9nQ8vbGnpoZHPvnEySmrvBqLJX5xFADCggzG/1HWlZbyooNJkGO4un/ImYxU1Jialsbd2dnGxz9WWMjuGJhdfnH+PHcVFDh5VfoP8FfvRmSJV5xmAAAb0G2aRvymsJA/njBzWsox3N8/du5czKTCn8zNdbRYuWLvXidpeMSUNTXx3V27nNpsv2D34QcmjgOAiLSgK7eMCInws4MHefjw4T716SYMH25U4RcSYUsEBUeRMGXECJY7yAKqg0Hm7tjhi+31gdpaZm/b5rQYqRh43aMhWeIcNxkAwMvAficnrC4pYenu3b3WCCQlJBj3Drwew622Z6dNc7TCX9/ayoL8fJ44ciRiX8OeeOPUKebt3OlUdScE3Hs5u99aesdVABCRC8DdOHgVANhSUUHO++/z+6KiHifCHVlZRtfaWVXluX9eT0xMTWXDnDmOzmkNhXjms8+YsXVrVLOBw3V13PLhh9yzf7+bPoyXbUHOwMZIEqzHk5W6GS0Z7lh2d/ywYdw/cSIrx4+/qMz26JkzTNu61egav5g8mTWzZjm9ddR4tLCQFz533rmq0JWFD0yaxJKsLAY5bGwS4EAgwGsnTvDGqVPGBiDdOIIux+03QgGW6BNRAABQSj2MrvZydz7aMnt+RgYz0tOZkZ7OTXl5Rk/3RKU4tHgx0w0MN72gXYSF+fnkV7v3qcwcMoQVV1/NDeHW6Utp7glQ1thISUMD2ysr2RiZzh5oS+w5InI6kotY+j8RBwAApdSbwIrIh+Ocb48ezUcLF8bMgeerlhZmfvABp6PkY5ienMzowYNJTkhgcGIiF0IhSs+fpyl6ux7ngButzLYFXKTuPXAfuolkfpSuZ8z+QICXiot55NrYGBclJyQwPIrGI/WtrdR710zUACyzk9/SgdtdgIsQkUZgEbAmGtdzyqOFhbx32v9stk2E5QUFcakBcAlOoNP+/FgPxBI/RCUAAIhIu4j8Cvgx4KgKJVJCIqzct8/Xqrs2Ee4/cIC8+BTa6M52tLlG7GqTLXFJVNYA/u+iSs0G3kV3ivnGIKVYPWsWD+XkeHqfQEsLy/fuZVcEi38+8hLwqIj430FliXs8CQDQ2Tr6OPAg4Kuw/r3XXMNrs2cz2EEnoimf1tdz5549MatBcMAJ9MR/N9YDscQvngWAzhsolQ08BdwD+CPkD0xKTeXZ6dNZnp0dlR2C2pYWni8q4tXjxz2r5osS5cDTwHpb32/pC88DQOeNlLoWeAa4k+jtPvTJzJEjeX76dBaOHesqEJy9cIG1x46xqrjYrZHoWWABMBkdBBcQxbWXLtQCfwBeERFXLpyWgYdvAaDzhkqlA4uBO8LfvlTxZKSkcHtWFksyM1mQkdFrLf/Jc+fYXF7O5ooK9tTURKJA1AbcLiJ5HX+hlMpEy2zdA0x1e+Ew5cBWYAuQZx10LU7xPQBcdHOlBgE3op+K2UAGMDb8GYkuFBT0/nU9MAy4Mhr3Tk9OJnPIEMYOGcLwQYOoDgapDDsXReJt0I0HRORPPf2jUmomevv0avTv7/h0F0YQ4Cu01FYFsA/YIiKOFD8slu7ENAD0hlIqCT0RznasYIefnjuB2FT9OOM5EfmdmxOVUmnooJCE1tirsu/zFi+I2wDQE0qpK9Dy0ktiPZYeaEE/+TfEeiAWS194sRjlKSLSgF5IfD7WY7kElcA8O/kt/YV+lwF0RSm1AlgPDI31WNDGKctEpCLWA7FYTOl3GUBXROQfwHcwNC3xiCBaKPVmO/kt/Y1+nQF0RSl1O/AcMMOnW7YBfwaetn31lv7KZRMAAJRSCliOLjjyqiFAgDeBJ0TEyCPBYolXLqsA0IFSKhGtTbAk/Pl6hJdsA/YCm4H37MS3XC5clgGgO0qp69CVh4uA8cAYel44FLSTbRVQiJ7020TkjPcjtVj8ZUAEgEuhlEpFVx5moCsMv0JP+pqw6rHFctnzPwoK+YPcRG/GAAAAAElFTkSuQmCC;" vertex="1" parent="1">
          <mxGeometry x="187" y="312" width="80" height="80" as="geometry" />
        </mxCell>
        <mxCell id="fzYEetxtUc2qvv0lDvPF-10" value="" style="edgeStyle=orthogonalEdgeStyle;html=1;endArrow=block;elbow=vertical;startArrow=none;endFill=1;strokeColor=#545B64;rounded=0;" edge="1" parent="1">
          <mxGeometry width="100" relative="1" as="geometry">
            <mxPoint x="270" y="360" as="sourcePoint" />
            <mxPoint x="370" y="360" as="targetPoint" />
          </mxGeometry>
        </mxCell>
        <mxCell id="fzYEetxtUc2qvv0lDvPF-11" value="Lambda" style="outlineConnect=0;fontColor=#232F3E;gradientColor=#F78E04;gradientDirection=north;fillColor=#D05C17;strokeColor=#ffffff;dashed=0;verticalLabelPosition=bottom;verticalAlign=top;align=center;html=1;fontSize=12;fontStyle=0;aspect=fixed;shape=mxgraph.aws4.resourceIcon;resIcon=mxgraph.aws4.lambda;labelBackgroundColor=#ffffff;spacingTop=3;" vertex="1" parent="1">
          <mxGeometry x="350" y="560" width="78" height="78" as="geometry" />
        </mxCell>
        <mxCell id="fzYEetxtUc2qvv0lDvPF-12" value="Amazon API&lt;br&gt;Gateway&lt;br&gt;" style="outlineConnect=0;fontColor=#232F3E;gradientColor=#945DF2;gradientDirection=north;fillColor=#5A30B5;strokeColor=#ffffff;dashed=0;verticalLabelPosition=bottom;verticalAlign=top;align=center;html=1;fontSize=12;fontStyle=0;aspect=fixed;shape=mxgraph.aws4.resourceIcon;resIcon=mxgraph.aws4.api_gateway;labelBackgroundColor=#ffffff;" vertex="1" parent="1">
          <mxGeometry x="380" y="320" width="78" height="78" as="geometry" />
        </mxCell>
        <mxCell id="fzYEetxtUc2qvv0lDvPF-13" value="Amazon&lt;br&gt;CloudWatch&lt;br&gt;" style="outlineConnect=0;fontColor=#232F3E;gradientColor=#F34482;gradientDirection=north;fillColor=#BC1356;strokeColor=#ffffff;dashed=0;verticalLabelPosition=bottom;verticalAlign=top;align=center;html=1;fontSize=12;fontStyle=0;aspect=fixed;shape=mxgraph.aws4.resourceIcon;resIcon=mxgraph.aws4.cloudwatch;labelBackgroundColor=#ffffff;" vertex="1" parent="1">
          <mxGeometry x="450.0000000000002" y="560" width="78" height="78" as="geometry" />
        </mxCell>
        <mxCell id="fzYEetxtUc2qvv0lDvPF-14" value="Lambda&lt;br&gt;function" style="outlineConnect=0;fontColor=#232F3E;gradientColor=none;fillColor=#D05C17;strokeColor=none;dashed=0;verticalLabelPosition=bottom;verticalAlign=top;align=center;html=1;fontSize=12;fontStyle=0;aspect=fixed;pointerEvents=1;shape=mxgraph.aws4.lambda_function;labelBackgroundColor=#ffffff;" vertex="1" parent="1">
          <mxGeometry x="530" y="560" width="78" height="78" as="geometry" />
        </mxCell>
        <mxCell id="fzYEetxtUc2qvv0lDvPF-15" value="Amazon S3" style="outlineConnect=0;fontColor=#232F3E;gradientColor=#60A337;gradientDirection=north;fillColor=#277116;strokeColor=#ffffff;dashed=0;verticalLabelPosition=bottom;verticalAlign=top;align=center;html=1;fontSize=12;fontStyle=0;aspect=fixed;shape=mxgraph.aws4.resourceIcon;resIcon=mxgraph.aws4.s3;labelBackgroundColor=#ffffff;" vertex="1" parent="1">
          <mxGeometry x="640.0000000000002" y="565" width="78" height="78" as="geometry" />
        </mxCell>
        <mxCell id="fzYEetxtUc2qvv0lDvPF-16" value="IAM Roles" style="outlineConnect=0;fontColor=#232F3E;gradientColor=none;fillColor=#C7131F;strokeColor=none;dashed=0;verticalLabelPosition=bottom;verticalAlign=top;align=center;html=1;fontSize=12;fontStyle=0;aspect=fixed;pointerEvents=1;shape=mxgraph.aws4.role;labelBackgroundColor=#ffffff;" vertex="1" parent="1">
          <mxGeometry x="718.0000000000002" y="594" width="78" height="44" as="geometry" />
        </mxCell>
        <mxCell id="fzYEetxtUc2qvv0lDvPF-17" value="Amazon&lt;br&gt;CloudWatch Logs&lt;br&gt;" style="outlineConnect=0;fontColor=#232F3E;gradientColor=none;gradientDirection=north;fillColor=#F34482;strokeColor=none;dashed=0;verticalLabelPosition=bottom;verticalAlign=top;align=center;html=1;fontSize=12;fontStyle=0;aspect=fixed;shape=mxgraph.aws4.cloudwatch;labelBackgroundColor=#ffffff;" vertex="1" parent="1">
          <mxGeometry x="572.0000000000002" y="697" width="78" height="78" as="geometry" />
        </mxCell>
        <mxCell id="fzYEetxtUc2qvv0lDvPF-18" value="" style="edgeStyle=orthogonalEdgeStyle;html=1;endArrow=block;elbow=vertical;startArrow=none;endFill=1;strokeColor=#545B64;rounded=0;" edge="1" parent="1">
          <mxGeometry width="100" relative="1" as="geometry">
            <mxPoint x="469" y="358.29" as="sourcePoint" />
            <mxPoint x="569" y="358.29" as="targetPoint" />
          </mxGeometry>
        </mxCell>
      </root>
    </mxGraphModel>
  </diagram>
</mxfile>
